<svg xmlns="http://www.w3.org/2000/svg" viewBox="0 0 48 48"><path d="M26,25.5V30H22V25.5H18v-3h4V18h4v4.5h4v3ZM42,24A18,18,0,1,1,24,6,18,18,0,0,1,42,24ZM14.23,17.05,12.8,15.63A13.9,13.9,0,0,0,10.16,22h2A12,12,0,0,1,14.23,17.05ZM32,24a8,8,0,1,0-8,8A8,8,0,0,0,32,24Zm.37-11.2A13.9,13.9,0,0,0,26,10.16v2A12,12,0,0,1,31,14.23ZM22,10.16a13.9,13.9,0,0,0-6.37,2.64l1.42,1.43A12,12,0,0,1,22,12.18Zm-6.37,25A13.9,13.9,0,0,0,22,37.84v-2a12,12,0,0,1-4.95-2ZM26,37.84a13.9,13.9,0,0,0,6.37-2.64L31,33.77a12,12,0,0,1-4.95,2Zm9.2-5.47A13.9,13.9,0,0,0,37.84,26h-2a12,12,0,0,1-2,4.95Zm0-16.74-1.43,1.42a12,12,0,0,1,2,4.95h2A13.9,13.9,0,0,0,35.2,15.63ZM12.8,32.37,14.23,31A12,12,0,0,1,12.18,26h-2A13.9,13.9,0,0,0,12.8,32.37Z"/><rect width="48" height="48" style="fill:none"/></svg>