<svg xmlns="http://www.w3.org/2000/svg" viewBox="0 0 48 48"><rect width="48" height="48" style="fill:none"/><path d="M30,17a3,3,0,1,1-3-3A3,3,0,0,1,30,17Zm4.68,16.89a16.48,16.48,0,0,1-1.87,1.46l3.82,3.82L33.8,42,29,37.19A15.9,15.9,0,0,1,12.31,32.9L8.83,36.37,6,33.54l3.93-3.92a16,16,0,1,1,27.39,1.24l3.81,3.81L38.3,37.5ZM12.93,26.62,18.5,21l6.5,6.5L29.5,23,34.41,28A12,12,0,1,0,12,22,11.84,11.84,0,0,0,12.93,26.62Zm12.74,7.25L18.5,26.7l-3.36,3.36A12,12,0,0,0,24,34,11.52,11.52,0,0,0,25.67,33.87Zm6.18-2.82L29.5,28.7l-1.67,1.67,2.07,2.07A11.69,11.69,0,0,0,31.85,31.05Z"/></svg>