<svg xmlns="http://www.w3.org/2000/svg" viewBox="0 0 48 48"><rect width="48" height="48" style="fill:none"/><path d="M20,22.5A2.5,2.5,0,1,1,17.5,20,2.5,2.5,0,0,1,20,22.5ZM30.5,20A2.5,2.5,0,1,0,33,22.5,2.5,2.5,0,0,0,30.5,20Zm4.89,13.26-.23,0A14.84,14.84,0,0,1,24,38a14.84,14.84,0,0,1-11.16-4.79l-.23,0h0L5,35l.86,3.9,5.76-1.28A19.11,19.11,0,0,0,24,42a19.11,19.11,0,0,0,12.38-4.42l5.76,1.28L43,35l-7.61-1.7ZM44,28v4H36.11A10.69,10.69,0,0,0,38,26c0-6.62-6.28-12-14-12S10,19.38,10,26a10.69,10.69,0,0,0,1.89,6H4V28H6.16A14.71,14.71,0,0,1,6,26a14.38,14.38,0,0,1,.92-5c-.17-2.53-.44-9.38,1.13-15a26.85,26.85,0,0,1,9,5.25,20.17,20.17,0,0,1,14,0A26.85,26.85,0,0,1,40,6c1.57,5.59,1.3,12.44,1.13,15A14.38,14.38,0,0,1,42,26a14.71,14.71,0,0,1-.16,2ZM13.11,13.28c-.67-.51-1.36-1-2.07-1.47-.12,1.14-.18,2.25-.21,3.31A17.81,17.81,0,0,1,13.11,13.28Zm24.06,1.84c0-1.06-.09-2.17-.21-3.31-.71.45-1.4,1-2.07,1.47A17.81,17.81,0,0,1,37.17,15.12Z"/></svg>