<svg xmlns="http://www.w3.org/2000/svg" viewBox="0 0 48 48"><rect width="48" height="48" style="fill:none"/><path d="M38.58,8a6.29,6.29,0,0,0-2.89-.71,6.36,6.36,0,0,0-4.1,1.53,9.43,9.43,0,0,0-15.17,0A6.36,6.36,0,0,0,12.31,7.3,6.33,6.33,0,0,0,7,17.08l2,3c1.27,1.93,2.42,3.93,3.49,6l-.19,1.14A11.87,11.87,0,0,0,20,40.32a4,4,0,0,0,7.94,0A11.87,11.87,0,0,0,35.7,27.19l-.19-1.14c1.07-2,2.23-4,3.49-6l2-3A6.32,6.32,0,0,0,38.58,8ZM12.35,17.88l-2-3a2.33,2.33,0,0,1,.87-3.33,2.34,2.34,0,0,1,1.06-.26,2.31,2.31,0,0,1,2.16,1.47l.16.43-1.1,6.59C13.15,19.15,12.76,18.51,12.35,17.88ZM30,34.22a7.86,7.86,0,0,1-13.75-6.37l2.38-14.3a5.44,5.44,0,0,1,10.74,0l2.38,14.3A7.87,7.87,0,0,1,30,34.22Zm7.62-19.33-2,3c-.4.63-.8,1.27-1.19,1.91L33.37,13.2l.16-.43a2.31,2.31,0,0,1,2.16-1.47,2.34,2.34,0,0,1,1.06.26,2.33,2.33,0,0,1,.87,3.33Z"/></svg>