<svg xmlns="http://www.w3.org/2000/svg" viewBox="0 0 48 48"><path d="M23.57,8.17c-3.5,3.49-2.69,10,1.8,14.46s11,5.3,14.46,1.8S42.51,14.47,38,10,27.06,4.68,23.57,8.17ZM28.2,19.8C26.15,17.75,25.15,15,25.46,13L35,22.54C33,22.85,30.25,21.85,28.2,19.8Zm9.71,0-9.68-9.68c2.07-.38,4.87.62,7,2.72S38.29,17.7,37.91,19.77ZM8.17,23.57C4.68,27.06,5.49,33.53,10,38s11,5.3,14.45,1.81,2.69-10-1.8-14.46S11.66,20.07,8.17,23.57Zm4.64,11.62a8.56,8.56,0,0,1-2.74-6.82l9.56,9.56A8.56,8.56,0,0,1,12.81,35.19Zm9.71,0-9.68-9.68c2.07-.37,4.86.63,7,2.72S22.89,33.09,22.52,35.16Z"/><rect width="48" height="48" style="fill:none"/></svg>