<svg xmlns="http://www.w3.org/2000/svg" viewBox="0 0 48 48"><rect width="48" height="48" style="fill:none"/><path d="M15.5,14A1.5,1.5,0,1,1,14,15.5,1.5,1.5,0,0,1,15.5,14m0-4A5.5,5.5,0,1,0,21,15.5,5.5,5.5,0,0,0,15.5,10Zm17,4A1.5,1.5,0,1,1,31,15.5,1.5,1.5,0,0,1,32.5,14m0-4A5.5,5.5,0,1,0,38,15.5,5.5,5.5,0,0,0,32.5,10Zm-.06-1a6.55,6.55,0,0,1,5.49,10.14l-1.35,2.05,1.21,2.13A8.79,8.79,0,0,1,39,27.69C39,33.93,32.27,39,24,39S9,33.93,9,27.69a8.79,8.79,0,0,1,1.21-4.37l1.21-2.13-1.35-2.05a6.55,6.55,0,0,1,10.73-7.5L24,15.91l3.2-4.27A6.5,6.5,0,0,1,32.44,9m0-4A10.54,10.54,0,0,0,24,9.24,10.55,10.55,0,0,0,6.73,21.34,12.79,12.79,0,0,0,5,27.69C5,36.15,13.51,43,24,43s19-6.85,19-15.31a12.79,12.79,0,0,0-1.73-6.35A10.55,10.55,0,0,0,32.44,5ZM24,36a12.5,12.5,0,0,0,10.21-4.76,2,2,0,0,0-1.3-3.07h0a1.93,1.93,0,0,0-1.94.74A8.63,8.63,0,0,1,24,32a8.63,8.63,0,0,1-7-3.09,1.93,1.93,0,0,0-1.94-.74h0a2,2,0,0,0-1.3,3.07A12.5,12.5,0,0,0,24,36Z"/></svg>