<svg xmlns="http://www.w3.org/2000/svg" viewBox="0 0 48 48"><path d="M32.46,15.19A11.63,11.63,0,0,0,33,11.71v-.05a5.24,5.24,0,0,0-4.19-5.28,30.63,30.63,0,0,0-9.62,0A5.33,5.33,0,0,0,15,11.93c0,.31,0,.63.06.94a12,12,0,0,0,.48,2.34A18.78,18.78,0,0,0,6.11,29.54c-.06.58-.1,1.15-.11,1.71a9.9,9.9,0,0,0,8.38,10.07A69.49,69.49,0,0,0,24,42h0a68,68,0,0,0,9.63-.69A9.75,9.75,0,0,0,42,31.73v-.09A18.75,18.75,0,0,0,32.46,15.19ZM25,31.64v.09A20.86,20.86,0,0,1,24.2,38L24,38h-.19A22.28,22.28,0,0,1,23,31.27c0-.53,0-1.07,0-1.61A51,51,0,0,1,23.79,22h.43A55.06,55.06,0,0,1,25,31.64ZM17.06,29.8a21.65,21.65,0,0,1,2.54-9.12l.33.2a56.29,56.29,0,0,0-.9,8.66q0,.87,0,1.71a31.21,31.21,0,0,0,.56,6.28l-.52-.1C18.46,37.21,17,35,17,31.3Q17,30.55,17.06,29.8ZM31,31.72c0,3.46-1.48,5.51-2,5.7l-.53.11a28.85,28.85,0,0,0,.55-5.8v-.09a58.74,58.74,0,0,0-.92-10.76l.36-.23a22.75,22.75,0,0,1,2.56,11ZM19,12.48c0-.2,0-.42,0-.62,0-.87.46-1.48.81-1.53a26.77,26.77,0,0,1,8.38,0A1.34,1.34,0,0,1,29,11.71a7.87,7.87,0,0,1-.25,2A17.36,17.36,0,0,0,24,13h0a17.12,17.12,0,0,0-4.74.66A7.46,7.46,0,0,1,19,12.48ZM10,31.33c0-.45,0-.91.09-1.36a14.83,14.83,0,0,1,5.29-9.85,26.45,26.45,0,0,0-2.31,9.42c0,.58-.06,1.15-.07,1.71a15.06,15.06,0,0,0,1.07,5.89A5.93,5.93,0,0,1,10,31.33Zm28,.39a5.75,5.75,0,0,1-4,5.42,14.21,14.21,0,0,0,1-5.41v-.09a27.61,27.61,0,0,0-2.35-11.49A14.87,14.87,0,0,1,38,31.64Z"/><rect width="48" height="48" style="fill:none"/></svg>