<svg xmlns="http://www.w3.org/2000/svg" viewBox="0 0 48 48"><path d="M24,9.17c2.8,0,4.71,1,5,1.74s-.18,2.59-3.51,5.92l5.66,5.66c3.3-3.31,5.1-3.56,5.57-3.56,1.1,0,2.09,2.41,2.09,5.07s-1,5.07-2.09,5.07c-.47,0-2.27-.25-5.57-3.56l-2.83,2.83-2.83,2.83c3.33,3.33,3.75,5.33,3.51,5.92s-2.22,1.74-5,1.74-4.71-1-5-1.74.18-2.59,3.51-5.92l-5.66-5.66c-3.3,3.31-5.1,3.56-5.57,3.56-.2,0-.61,0-1.13-.88a8.62,8.62,0,0,1-1-4.19c0-2.66,1-5.07,2.09-5.07.47,0,2.27.25,5.57,3.56l5.66-5.66C19.16,13.5,18.74,11.5,19,10.91s2.22-1.74,5-1.74m0-4c-7,0-14,4.83-4.34,14.49-3.4-3.4-6.2-4.73-8.4-4.73-8.12,0-8.12,18.14,0,18.14,2.2,0,5-1.33,8.4-4.73C10,38,17,42.83,24,42.83S38,38,28.34,28.34c3.4,3.4,6.2,4.73,8.4,4.73,8.12,0,8.12-18.15,0-18.14-2.2,0-5,1.33-8.4,4.73C38,10,31,5.17,24,5.17Z"/><rect width="48" height="48" style="fill:none"/></svg>