<svg xmlns="http://www.w3.org/2000/svg" viewBox="0 0 48 48"><rect width="48" height="48" style="fill:none"/><path d="M37.43,18.51c-2.35,0-5.36.83-9,2.94,12.49-7.21,8.21-15.36,2.91-15.36C27.88,6.09,24,9.53,24,18.9c0-9.37-3.88-12.81-7.33-12.81-5.31,0-9.58,8.15,2.91,15.36-3.65-2.11-6.66-2.94-9-2.94-8.59,0-8.59,11,0,11,2.35,0,5.36-.83,9-2.94-12.49,7.21-8.21,15.36-2.91,15.36,3.45,0,7.33-3.44,7.33-12.81,0,9.37,3.88,12.81,7.33,12.81,5.31,0,9.58-8.15-2.91-15.36,3.65,2.11,6.66,2.94,9,2.94C46,29.49,46,18.52,37.43,18.51Zm-26.86,7a2.54,2.54,0,0,1-2.28-.88,1.21,1.21,0,0,1,0-1.22,2.54,2.54,0,0,1,2.28-.88A12.54,12.54,0,0,1,15.86,24,12.54,12.54,0,0,1,10.57,25.49Zm6.1,12.42a1.23,1.23,0,0,1-1.18-.9c-.25-.93.45-3.25,4.44-6C19.57,36,17.82,37.91,16.67,37.91ZM15.49,11a1.23,1.23,0,0,1,1.18-.9c1.15,0,2.9,1.9,3.26,6.86C15.94,14.24,15.24,11.92,15.49,11ZM24,28a4,4,0,1,1,4-4A4,4,0,0,1,24,28Zm8.51,9a1.23,1.23,0,0,1-1.18.9c-1.15,0-2.9-1.9-3.26-6.86C32.06,33.76,32.76,36.08,32.51,37ZM28.07,17a11.57,11.57,0,0,1,1.59-5.7,2.34,2.34,0,0,1,1.67-1.16,1.23,1.23,0,0,1,1.18.9C32.76,11.92,32.06,14.24,28.07,17Zm9.36,8.54A12.54,12.54,0,0,1,32.14,24a12.54,12.54,0,0,1,5.29-1.49c1.53,0,2.44.56,2.44,1.49S39,25.49,37.43,25.49Z"/></svg>