<svg xmlns="http://www.w3.org/2000/svg" viewBox="0 0 48 48"><path d="M41.46,28.31a17.85,17.85,0,0,1-1.41,3.8L26,24l14-8.11a17.85,17.85,0,0,1,1.41,3.8L34,24ZM25,25.73V42a18.18,18.18,0,0,0,4-.67V32.66L36.46,37a18.1,18.1,0,0,0,2.6-3.12Zm4-19a18.18,18.18,0,0,0-4-.67V22.27l14.06-8.12A18.1,18.1,0,0,0,36.46,11L29,15.34Zm-22.46,13L14,24,6.54,28.31A17.85,17.85,0,0,0,8,32.11L22,24,8,15.89A17.85,17.85,0,0,0,6.54,19.69ZM23,42V25.73L8.94,33.85A18.1,18.1,0,0,0,11.54,37L19,32.66v8.62A18.18,18.18,0,0,0,23,42ZM19,6.72v8.62L11.54,11a18.1,18.1,0,0,0-2.6,3.12L23,22.27V6.05A18.18,18.18,0,0,0,19,6.72Z"/><rect width="48" height="48" style="fill:none"/></svg>