<svg xmlns="http://www.w3.org/2000/svg" viewBox="0 0 48 48"><rect width="48" height="48" style="fill:none"/><path d="M23,8a2,2,0,1,1-2,2,2,2,0,0,1,2-2m0-4a6,6,0,1,0,6,6,6,6,0,0,0-6-6Zm0,32a2,2,0,1,1-2,2,2,2,0,0,1,2-2m0-4a6,6,0,1,0,6,6,6,6,0,0,0-6-6ZM37,22a2,2,0,1,1-2,2,2,2,0,0,1,2-2m0-4a6,6,0,1,0,6,6,6,6,0,0,0-6-6Zm-7.17-3.85a12,12,0,0,1,3,3,8,8,0,0,1,4-1.16A16.14,16.14,0,0,0,31,10.15,8,8,0,0,1,29.83,14.15ZM16.17,33.85a12,12,0,0,1,0-19.7,8,8,0,0,1-1.16-4,16,16,0,0,0,0,27.7A8,8,0,0,1,16.17,33.85Zm16.68-3a12,12,0,0,1-3,3,8,8,0,0,1,1.16,4A16.14,16.14,0,0,0,36.85,32,8,8,0,0,1,32.85,30.83Z"/></svg>