<svg xmlns="http://www.w3.org/2000/svg" viewBox="0 0 48 48"><path d="M12.5,24A2.5,2.5,0,1,1,10,21.5,2.5,2.5,0,0,1,12.5,24ZM38,23.5a.5.5,0,1,0,.5.5A.5.5,0,0,0,38,23.5ZM22.5,38A1.5,1.5,0,1,0,24,36.5,1.5,1.5,0,0,0,22.5,38Zm-2-28A3.5,3.5,0,1,0,24,6.5,3.5,3.5,0,0,0,20.5,10Zm-4.28,2a3,3,0,1,0,0,4.24A3,3,0,0,0,16.22,12ZM34.61,33.19a1,1,0,1,0,0,1.42A1,1,0,0,0,34.61,33.19Zm-21.92-.7a2,2,0,1,0,2.82,0A2,2,0,0,0,12.69,32.49ZM31.07,11.27a4,4,0,1,0,5.66,0A4,4,0,0,0,31.07,11.27Z"/><rect width="48" height="48" style="fill:none"/></svg>