<svg xmlns="http://www.w3.org/2000/svg" viewBox="0 0 48 48"><rect width="48" height="48" style="fill:none"/><path d="M35,19.14A12.09,12.09,0,0,0,28.86,13a7,7,0,0,1-9.72,0,12,12,0,0,0,0,21.94,7,7,0,0,1,9.72,0A12.09,12.09,0,0,0,35,28.86a7,7,0,0,1,0-9.72ZM24,32a8,8,0,1,1,8-8A8,8,0,0,1,24,32Zm21-8a5,5,0,0,0-3.66-4.8A18,18,0,0,0,28.79,6.66a5,5,0,1,0-.57,4,14.06,14.06,0,0,1,9.11,9.12,5,5,0,0,0,0,8.44,14,14,0,0,1-9.12,9.12,5,5,0,1,0,.57,4A18,18,0,0,0,41.34,28.8,5,5,0,0,0,45,24ZM24,9a1,1,0,1,1,1-1A1,1,0,0,1,24,9ZM23,40a1,1,0,1,1,1,1A1,1,0,0,1,23,40ZM40,25a1,1,0,1,1,1-1A1,1,0,0,1,40,25Z"/></svg>