<svg xmlns="http://www.w3.org/2000/svg" viewBox="0 0 48 48"><path d="M40.67,15.9a6.45,6.45,0,0,0,.23-1.61l3.19-.86-1-3.86-3.18.85a7.06,7.06,0,0,0-2.29-2.29L38.43,5l-3.86-1-.85,3.18a6.91,6.91,0,0,0-3.13.85L28.25,5.6,25.43,8.43l2.33,2.33a6.53,6.53,0,0,0-.61,1.52,7.53,7.53,0,0,0-.23,1.61l-3.19.85,1,3.87L28,17.75a6.87,6.87,0,0,0,2.28,2.3l-.85,3.18,3.87,1,.85-3.19a6.93,6.93,0,0,0,3.13-.84l2.33,2.33,2.83-2.82-2.34-2.34A6.46,6.46,0,0,0,40.67,15.9ZM33.14,17a3,3,0,1,1,3.67-2.13A3,3,0,0,1,33.14,17Zm-1.23,15.1v-4H28.72A10.79,10.79,0,0,0,27,23.86l2.26-2.26L26.4,18.77,24.14,21a10.79,10.79,0,0,0-4.23-1.75V16.09h-4v3.19A10.86,10.86,0,0,0,11.68,21L9.43,18.77,6.6,21.6l2.25,2.26A11,11,0,0,0,7.1,28.09H3.91v4H7.1a11,11,0,0,0,1.75,4.23L6.6,38.57,9.43,41.4l2.25-2.25a11,11,0,0,0,4.23,1.75v3.19h4V40.9a11,11,0,0,0,4.23-1.75L26.4,41.4l2.83-2.83L27,36.32a10.86,10.86,0,0,0,1.75-4.23Zm-14,5a7,7,0,1,1,7-7A7,7,0,0,1,17.91,37.09Z"/><rect width="48" height="48" style="fill:none"/></svg>