<svg xmlns="http://www.w3.org/2000/svg" viewBox="0 0 48 48"><path d="M38.85,23A14.71,14.71,0,0,0,39,21,15,15,0,0,0,9,21a14.71,14.71,0,0,0,.15,2H6V42H42V23ZM21,21c0-.7,0-1.36.07-2h5.86c0,.64.07,1.3.07,2s0,1.36-.07,2H21.07C21,22.36,21,21.7,21,21Zm3-10.91c.63.5,1.65,2.18,2.32,4.91H21.68C22.35,12.27,23.37,10.59,24,10.09ZM26.32,27c-.67,2.73-1.69,4.41-2.32,4.91-.63-.5-1.65-2.18-2.32-4.91Zm-7.7,3.58A11,11,0,0,1,14.79,27h2.8A21.3,21.3,0,0,0,18.62,30.58ZM30.41,27h2.8a11,11,0,0,1-3.83,3.58A21.3,21.3,0,0,0,30.41,27Zm.52-4c0-.66.07-1.32.07-2s0-1.34-.07-2h3.88a10.62,10.62,0,0,1,0,4Zm2.28-8h-2.8a21.3,21.3,0,0,0-1-3.58A11,11,0,0,1,33.21,15ZM18.62,11.42a21.3,21.3,0,0,0-1,3.58h-2.8A11,11,0,0,1,18.62,11.42ZM13,21a11,11,0,0,1,.19-2h3.88c0,.66-.07,1.32-.07,2s0,1.34.07,2H13.19A11,11,0,0,1,13,21ZM38,38H10V27h.26a15,15,0,0,0,27.48,0H38Z"/><rect width="48" height="48" style="fill:none"/></svg>