<svg xmlns="http://www.w3.org/2000/svg" viewBox="0 0 48 48"><rect width="48" height="48" style="fill:none"/><path d="M24,10A14,14,0,1,1,10,24,14,14,0,0,1,24,10m0-4A18,18,0,1,0,42,24,18,18,0,0,0,24,6Zm-.06,23.47h6.25v3.59H18.12V30.5l5.41-5.79a13.06,13.06,0,0,0,1.89-2.42,3.78,3.78,0,0,0,.5-1.81,1.77,1.77,0,0,0-.55-1.31,2,2,0,0,0-1.43-.53,2.41,2.41,0,0,0-1.65.66,3.75,3.75,0,0,0-1.06,1.8l-3.42-1.41a6,6,0,0,1,2.28-3.33,6.72,6.72,0,0,1,4-1.25,6.44,6.44,0,0,1,3,.68,5.06,5.06,0,0,1,2.05,1.89,5.13,5.13,0,0,1,.73,2.74,6.38,6.38,0,0,1-.77,3,15.43,15.43,0,0,1-2.5,3.29Z"/></svg>