<svg xmlns="http://www.w3.org/2000/svg" viewBox="0 0 48 48"><rect width="48" height="48" style="fill:none"/><path d="M24,10A14,14,0,1,1,10,24,14,14,0,0,1,24,10m0-4A18,18,0,1,0,42,24,18,18,0,0,0,24,6ZM20.58,32.59a5.82,5.82,0,0,1-2.34-2.22,6.24,6.24,0,0,1-.84-3.22A9.76,9.76,0,0,1,17.91,24a19.86,19.86,0,0,1,1.74-3.63L22.79,15h4.67l-3.89,6.26.07.07a4,4,0,0,1,1.5-.29,5.23,5.23,0,0,1,2.71.74,5.4,5.4,0,0,1,2,2.1A6.31,6.31,0,0,1,30.6,27a6.46,6.46,0,0,1-.85,3.34,5.83,5.83,0,0,1-2.36,2.26,7.23,7.23,0,0,1-3.43.8A7.06,7.06,0,0,1,20.58,32.59Zm5.28-3.53a2.65,2.65,0,0,0,.72-1.91,2.57,2.57,0,0,0-.69-1.85,2.41,2.41,0,0,0-1.78-.71,2.66,2.66,0,0,0-1.93.73,2.4,2.4,0,0,0-.76,1.83,2.62,2.62,0,0,0,.74,1.91,2.47,2.47,0,0,0,1.86.76A2.41,2.41,0,0,0,25.86,29.06Z"/></svg>