<svg xmlns="http://www.w3.org/2000/svg" viewBox="0 0 48 48"><rect width="48" height="48" style="fill:none"/><path d="M24,10A14,14,0,1,1,10,24,14,14,0,0,1,24,10m0-4A18,18,0,1,0,42,24,18,18,0,0,0,24,6ZM19.17,31c-1.14-1.58-1.7-3.85-1.7-6.81S18,19,19.17,17.38A5.57,5.57,0,0,1,24,15a5.56,5.56,0,0,1,4.84,2.38C30,19,30.53,21.25,30.53,24.2S30,29.43,28.84,31A5.58,5.58,0,0,1,24,33.39,5.59,5.59,0,0,1,19.17,31Zm6.74-2.69a10,10,0,0,0,.67-4.12,10.13,10.13,0,0,0-.67-4.14,2,2,0,0,0-3.82,0,10.05,10.05,0,0,0-.67,4.12,10,10,0,0,0,.67,4.12,2,2,0,0,0,3.82,0Z"/></svg>