<svg xmlns="http://www.w3.org/2000/svg" viewBox="0 0 48 48"><rect width="48" height="48" style="fill:none"/><path d="M24,10A14,14,0,1,1,10,24,14,14,0,0,1,24,10m0-4A18,18,0,1,0,42,24,18,18,0,0,0,24,6Zm3.74,16a4.9,4.9,0,0,1,1.94,2.09,6.89,6.89,0,0,1,.67,3.14,6.66,6.66,0,0,1-.78,3.3,5.29,5.29,0,0,1-2.25,2.14,7.29,7.29,0,0,1-3.43.76,6.73,6.73,0,0,1-3.95-1.19,5.78,5.78,0,0,1-2.29-3.12l3.61-1.17a2.86,2.86,0,0,0,1,1.38,2.68,2.68,0,0,0,1.61.5,2.54,2.54,0,0,0,1.86-.67,2.43,2.43,0,0,0,.7-1.82,2.48,2.48,0,0,0-.68-1.85,2.56,2.56,0,0,0-1.88-.66,2.83,2.83,0,0,0-1.47.38,2.53,2.53,0,0,0-1,1.1L18,25.57,18.81,15H29.5v3.57h-7l-.3,3.23a5.61,5.61,0,0,1,2.54-.58A5.81,5.81,0,0,1,27.74,22Z"/></svg>