<svg xmlns="http://www.w3.org/2000/svg" viewBox="0 0 48 48"><rect width="48" height="48" style="fill:none"/><path d="M24,10A14,14,0,1,1,10,24,14,14,0,0,1,24,10m0-4A18,18,0,1,0,42,24,18,18,0,0,0,24,6Zm1.43,16.06a4.33,4.33,0,0,1,2.39.67,4.85,4.85,0,0,1,1.76,1.91,5.86,5.86,0,0,1,.66,2.81,6,6,0,0,1-.79,3.08,5.43,5.43,0,0,1-2.2,2.1,6.8,6.8,0,0,1-3.22.76,6.45,6.45,0,0,1-3.9-1.18A7,7,0,0,1,17.76,29l3.57-1.24A2.64,2.64,0,0,0,24,29.84a2.35,2.35,0,0,0,1.72-.65,2.39,2.39,0,0,0,.65-1.74,2.35,2.35,0,0,0-.66-1.76,2.45,2.45,0,0,0-1.8-.66,2.25,2.25,0,0,0-.74.12,5.14,5.14,0,0,0-.81.41l-2.13-2.72,4-4H18.63V15.24H29.42v3.23l-4,3.48Z"/></svg>