<svg xmlns="http://www.w3.org/2000/svg" viewBox="0 0 48 48"><path d="M26,8a2,2,0,1,1-2-2A2,2,0,0,1,26,8ZM24,38a2,2,0,1,0,2,2A2,2,0,0,0,24,38ZM15,8.41a2,2,0,1,0,2.73.73A2,2,0,0,0,15,8.41ZM31,36.12a2,2,0,1,0,2.73.74A2,2,0,0,0,31,36.12ZM6,24a2,2,0,1,0,2-2A2,2,0,0,0,6,24Zm32,0a2,2,0,1,0,2-2A2,2,0,0,0,38,24ZM8.41,15a2,2,0,1,0,2.73-.73A2,2,0,0,0,8.41,15ZM36.12,31a2,2,0,1,0,2.74-.73A2,2,0,0,0,36.12,31ZM30.27,9.14A2,2,0,1,0,33,8.41,2,2,0,0,0,30.27,9.14Zm-16,27.72A2,2,0,1,0,17,36.12,2,2,0,0,0,14.27,36.86ZM36.86,14.27a2,2,0,1,0,2.73.73A2,2,0,0,0,36.86,14.27Zm-27.72,16a2,2,0,1,0,2.74.73A2,2,0,0,0,9.14,30.27Z"/><rect width="48" height="48" style="fill:none"/></svg>