<svg xmlns="http://www.w3.org/2000/svg" viewBox="0 0 48 48"><rect width="48" height="48" style="fill:none"/><path d="M24,10A14,14,0,1,1,10,24,14,14,0,0,1,24,10m0-4A18,18,0,1,0,42,24,18,18,0,0,0,24,6ZM20.56,32.73a5.34,5.34,0,0,1-2.32-1.82,4.69,4.69,0,0,1,.11-5.48,5.57,5.57,0,0,1,2.28-1.76v-.06a4.56,4.56,0,0,1-1.83-1.53,4.19,4.19,0,0,1,0-4.81,5,5,0,0,1,2.11-1.66A7.46,7.46,0,0,1,24,15a7.38,7.38,0,0,1,3.11.61,5,5,0,0,1,2.1,1.66,4.25,4.25,0,0,1,0,4.85,4.57,4.57,0,0,1-1.88,1.49v.06a5.62,5.62,0,0,1,2.32,1.76,4.69,4.69,0,0,1,.13,5.48,5.28,5.28,0,0,1-2.3,1.82,8.51,8.51,0,0,1-3.46.66A8.43,8.43,0,0,1,20.56,32.73Zm5.33-3.46a2,2,0,0,0,.7-1.62,2.08,2.08,0,0,0-.7-1.65A2.81,2.81,0,0,0,24,25.4a2.85,2.85,0,0,0-1.9.6,2.08,2.08,0,0,0-.7,1.65,2,2,0,0,0,.7,1.62,2.85,2.85,0,0,0,1.9.61A2.81,2.81,0,0,0,25.89,29.27Zm-.42-7.77A1.56,1.56,0,0,0,26,20.25,1.6,1.6,0,0,0,25.48,19,2.18,2.18,0,0,0,24,18.51a2.22,2.22,0,0,0-1.48.46A1.58,1.58,0,0,0,22,20.25a1.56,1.56,0,0,0,.55,1.25,2.53,2.53,0,0,0,2.94,0Z"/></svg>