<svg xmlns="http://www.w3.org/2000/svg" viewBox="0 0 48 48"><rect width="48" height="48" style="fill:none"/><path d="M24,10A14,14,0,1,1,10,24,14,14,0,0,1,24,10m0-4A18,18,0,1,0,42,24,18,18,0,0,0,24,6ZM20.6,33.06l3.8-6.15-.07-.07a3.66,3.66,0,0,1-1.46.29,4.91,4.91,0,0,1-2.64-.76,5.72,5.72,0,0,1-2-2.1,6,6,0,0,1-.73-3A6.46,6.46,0,0,1,18.35,18a6,6,0,0,1,2.32-2.24,7.41,7.41,0,0,1,6.68,0A5.83,5.83,0,0,1,29.66,18a6.06,6.06,0,0,1,.82,3.14,9.7,9.7,0,0,1-.5,3.11,21.56,21.56,0,0,1-1.7,3.55l-3.09,5.27Zm5.19-10.13a2.39,2.39,0,0,0,.75-1.8,2.63,2.63,0,0,0-.73-1.89A2.49,2.49,0,0,0,24,18.51a2.37,2.37,0,0,0-1.79.73,2.65,2.65,0,0,0-.71,1.89,2.5,2.5,0,0,0,.69,1.8,2.26,2.26,0,0,0,1.72.71A2.65,2.65,0,0,0,25.79,22.93Z"/></svg>