<svg xmlns="http://www.w3.org/2000/svg" viewBox="0 0 48 48"><rect width="48" height="48" style="fill:none"/><path d="M34.37,14,38,17.65V34H10V14H34.37M36,10H6V38H42V16l-6-6ZM24.09,30.62H20.87L20,28H15.36l-.9,2.66H11.24l4.87-13.24h3.11Zm-6.47-9.28-1.28,3.77H19l-1.27-3.77Zm7.65,9.28V17.38H30a7.73,7.73,0,0,1,3.64.8A5.42,5.42,0,0,1,36,20.48,7.29,7.29,0,0,1,36.76,24a7.08,7.08,0,0,1-.84,3.52,5.55,5.55,0,0,1-2.42,2.3,8.35,8.35,0,0,1-3.79.8Zm4.46-2.85a4,4,0,0,0,2.89-1,3.67,3.67,0,0,0,1-2.77,3.47,3.47,0,0,0-3.79-3.78H28.31v7.55Z"/></svg>