<svg xmlns="http://www.w3.org/2000/svg" viewBox="0 0 48 48"><rect width="48" height="48" style="fill:none"/><path d="M8.83,6,6,8.83,7.17,10H6V38H35.17l4,4L42,39.17ZM19,25.11H16.34l1.28-3.77h.11ZM10,34V14h1.17l4.53,4.53L11.24,30.66h3.22l.9-2.66H20l.87,2.62h3.22l-2.16-5.87,3.34,3.35v2.52h2.52L31.17,34ZM42,16V33.51l-4-4V17.65L34.37,14H22.49l-4-4H36Zm-8.48,9a3.64,3.64,0,0,0,.1-1,3.47,3.47,0,0,0-3.13-3.78,3.64,3.64,0,0,0-.66,0H28.71l-2.84-2.84H30a7.78,7.78,0,0,1,3.64.8A5.41,5.41,0,0,1,36,20.48,7.38,7.38,0,0,1,36.76,24,7.06,7.06,0,0,1,36,27.46Z"/></svg>