<svg xmlns="http://www.w3.org/2000/svg" viewBox="0 0 48 48"><rect width="48" height="48" style="fill:none"/><path d="M42,24a17.93,17.93,0,0,1-3,9.91,33.5,33.5,0,0,0-1.79-5.37A14,14,0,0,0,19.46,10.77,33.5,33.5,0,0,0,14.09,9a17.94,17.94,0,0,1,19.56-.16,4,4,0,1,1,5.53,5.53A17.89,17.89,0,0,1,42,24ZM35.27,35.41A30.45,30.45,0,0,1,36,42a29.91,29.91,0,0,1-6.8-.78A18,18,0,0,1,6.78,18.8,29.91,29.91,0,0,1,6,12a30.45,30.45,0,0,1,6.59.73l.16,0A30,30,0,0,1,35.23,35.25.75.75,0,0,0,35.27,35.41Zm-4,.54A26.06,26.06,0,0,0,12.05,16.73a13.91,13.91,0,0,0,.75,15.64L16.15,29A3.81,3.81,0,0,1,16,28a4,4,0,1,1,4,4,3.81,3.81,0,0,1-1-.15L15.63,35.2A13.91,13.91,0,0,0,31.27,36Z"/></svg>