<svg xmlns="http://www.w3.org/2000/svg" viewBox="0 0 48 48"><path d="M24,22a2,2,0,1,1-2,2,2,2,0,0,1,2-2m0-4h0a6,6,0,0,0-6,6h0a6,6,0,0,0,6,6h0a6,6,0,0,0,6-6h0a6,6,0,0,0-6-6Zm13,4a2,2,0,1,1-2,2,2,2,0,0,1,2-2m0-4h0a6,6,0,0,0-6,6h0a6,6,0,0,0,6,6h0a6,6,0,0,0,6-6h0a6,6,0,0,0-6-6ZM11,22a2,2,0,1,1-2,2,2,2,0,0,1,2-2m0-4h0a6,6,0,0,0-6,6H5a6,6,0,0,0,6,6h0a6,6,0,0,0,6-6h0a6,6,0,0,0-6-6ZM24,9a2,2,0,1,1-2,2,2,2,0,0,1,2-2m0-4h0a6,6,0,0,0-6,6h0a6,6,0,0,0,6,6h0a6,6,0,0,0,6-6h0a6,6,0,0,0-6-6ZM37,9a2,2,0,1,1-2,2,2,2,0,0,1,2-2m0-4h0a6,6,0,0,0-6,6h0a6,6,0,0,0,6,6h0a6,6,0,0,0,6-6h0a6,6,0,0,0-6-6ZM11,9a2,2,0,1,1-2,2,2,2,0,0,1,2-2m0-4h0a6,6,0,0,0-6,6H5a6,6,0,0,0,6,6h0a6,6,0,0,0,6-6h0a6,6,0,0,0-6-6ZM24,35a2,2,0,1,1-2,2,2,2,0,0,1,2-2m0-4h0a6,6,0,0,0-6,6h0a6,6,0,0,0,6,6h0a6,6,0,0,0,6-6h0a6,6,0,0,0-6-6Zm13,4a2,2,0,1,1-2,2,2,2,0,0,1,2-2m0-4h0a6,6,0,0,0-6,6h0a6,6,0,0,0,6,6h0a6,6,0,0,0,6-6h0a6,6,0,0,0-6-6ZM11,35a2,2,0,1,1-2,2,2,2,0,0,1,2-2m0-4h0a6,6,0,0,0-6,6H5a6,6,0,0,0,6,6h0a6,6,0,0,0,6-6h0a6,6,0,0,0-6-6Z"/><rect width="48" height="48" style="fill:none"/></svg>