<svg xmlns="http://www.w3.org/2000/svg" viewBox="0 0 48 48"><rect width="48" height="48" style="fill:none"/><path d="M31,14.23,39.17,6,42,8.83l-8.23,8.22A11.8,11.8,0,0,0,31,14.23Zm-13.9,0L8.83,6,6,8.83l8.23,8.22A11.8,11.8,0,0,1,17.05,14.23ZM31,33.77,39.17,42,42,39.17,33.77,31A11.8,11.8,0,0,1,31,33.77ZM14.23,31,6,39.17,8.83,42l8.22-8.23A11.8,11.8,0,0,1,14.23,31Zm4.61-17.77a11.87,11.87,0,0,1,10.32,0l3-2.95a15.9,15.9,0,0,0-16.24,0ZM36,24a11.92,11.92,0,0,1-1.18,5.16l3,3a15.9,15.9,0,0,0,0-16.24l-3,3A11.92,11.92,0,0,1,36,24ZM12,24a11.92,11.92,0,0,1,1.18-5.16l-2.95-3a15.9,15.9,0,0,0,0,16.24l2.95-3A11.92,11.92,0,0,1,12,24ZM29.16,34.82a11.87,11.87,0,0,1-10.32,0l-3,3a15.9,15.9,0,0,0,16.24,0Z"/></svg>