<svg xmlns="http://www.w3.org/2000/svg" viewBox="0 0 48 48"><path d="M24,20.12l3.36,1.94v3.88L24,27.88l-3.36-1.94V22.06L24,20.12m0-4.62-7.36,4.25v8.5L24,32.5l7.36-4.25v-8.5L24,15.5ZM13.5,33A1.5,1.5,0,1,1,12,34.5,1.5,1.5,0,0,1,13.5,33m0-4A5.5,5.5,0,1,0,19,34.5,5.5,5.5,0,0,0,13.5,29Zm0-17A1.5,1.5,0,1,1,12,13.5,1.5,1.5,0,0,1,13.5,12m0-4A5.5,5.5,0,1,0,19,13.5,5.5,5.5,0,0,0,13.5,8Zm21,25A1.5,1.5,0,1,1,33,34.5,1.5,1.5,0,0,1,34.5,33m0-4A5.5,5.5,0,1,0,40,34.5,5.5,5.5,0,0,0,34.5,29Zm0-17A1.5,1.5,0,1,1,33,13.5,1.5,1.5,0,0,1,34.5,12m0-4A5.5,5.5,0,1,0,40,13.5,5.5,5.5,0,0,0,34.5,8ZM40,21a3,3,0,1,0,3,3A3,3,0,0,0,40,21ZM8,21a3,3,0,1,0,3,3A3,3,0,0,0,8,21ZM24,37a3,3,0,1,0,3,3A3,3,0,0,0,24,37ZM24,5a3,3,0,1,0,3,3A3,3,0,0,0,24,5Z"/><rect width="48" height="48" style="fill:none"/></svg>