<svg xmlns="http://www.w3.org/2000/svg" viewBox="0 0 48 48"><rect width="48" height="48" style="fill:none"/><path d="M43,23.28A19,19,0,0,0,5,23.28,5.79,5.79,0,0,0,5,24L22,42l2,2.12L26,42,43,24A5.79,5.79,0,0,0,43,23.28ZM24,9a15,15,0,0,1,13.32,8.13A7.2,7.2,0,0,0,36,17a7,7,0,0,0-4.67,1.79,9,9,0,0,0-14.66,0A7,7,0,0,0,12,17a7.2,7.2,0,0,0-1.32.13A15,15,0,0,1,24,9ZM9.3,22.72a3,3,0,0,1,5.59.48,20.38,20.38,0,0,0,.64,2.15l2.62,6.75Zm18.87,2.66L24,36.11,19.83,25.38A4.64,4.64,0,0,1,23.46,19a4.87,4.87,0,0,1,1.08,0A4.64,4.64,0,0,1,28.17,25.38Zm1.68,6.72,2.62-6.75a20.38,20.38,0,0,0,.64-2.15,3,3,0,0,1,5.59-.48Z"/></svg>