<svg xmlns="http://www.w3.org/2000/svg" viewBox="0 0 48 48"><rect width="48" height="48" style="fill:none"/><path d="M12,12.11a2,2,0,1,1-2.83,0A2,2,0,0,1,12,12.11Zm.73,8.06a2,2,0,1,0,2.83,0A2,2,0,0,0,12.74,20.17Zm21.59-11a2,2,0,1,0,2.83,0A2,2,0,0,0,34.33,9.18ZM20.54,19.37h0a2,2,0,0,0,.27-2.48,8,8,0,0,1,0-8.9,2,2,0,0,0-.28-2.47h0a2,2,0,0,0-3.05.26,12,12,0,0,0,0,13.34A2,2,0,0,0,20.54,19.37ZM43,43,18.6,38.12a2.55,2.55,0,0,1-1.46-.67c-1.26-1.26-.8-4,.92-7.11A14.05,14.05,0,0,0,8,30.65a2,2,0,0,1-2.18-.42h0A2,2,0,0,1,6.35,27a18,18,0,0,1,14-.06,35.08,35.08,0,0,1,3.09-3.52,34.49,34.49,0,0,1,2.9-2.61,18,18,0,0,1-.79-13.63,2,2,0,0,1,3.31-.79h0a1.94,1.94,0,0,1,.48,2,14.13,14.13,0,0,0,.32,10c3.45-2.05,6.46-2.68,7.81-1.32a2.55,2.55,0,0,1,.67,1.46ZM20.85,33.75a25.21,25.21,0,0,0,7.51-5.39,25.21,25.21,0,0,0,5.39-7.51,15.41,15.41,0,0,0-2.08,1.07,2,2,0,0,1-.36,2.31h0a2,2,0,0,1-2.84,0c-.73.6-1.47,1.28-2.23,2a29.88,29.88,0,0,0-2.41,2.69,2,2,0,0,1-2.19,3.22A13,13,0,0,0,20.85,33.75Zm17.06,4.16-2.39-12a34.36,34.36,0,0,1-4.33,5.26,34.36,34.36,0,0,1-5.26,4.33Z"/></svg>