<svg xmlns="http://www.w3.org/2000/svg" viewBox="0 0 48 48"><rect width="48" height="48" style="fill:none"/><path d="M40,28H35a2,2,0,0,1,0-4h5V11H28.91A6.64,6.64,0,0,0,29,10a6,6,0,0,0-12,0,6.64,6.64,0,0,0,.09,1H11v9.09A6.64,6.64,0,0,0,10,20a6,6,0,0,0,0,12,6.64,6.64,0,0,0,1-.09V40H21V35a2,2,0,0,1,4,0v5H40Zm-4,8H28.91A6.64,6.64,0,0,0,29,35a6,6,0,0,0-12,0,6.64,6.64,0,0,0,.09,1H15V28H10a2,2,0,0,1,0-4h5V15h6V10a2,2,0,0,1,4,0v5H36v5.09A6.64,6.64,0,0,0,35,20a6,6,0,0,0,0,12,6.64,6.64,0,0,0,1-.09Z"/></svg>