<svg xmlns="http://www.w3.org/2000/svg" viewBox="0 0 48 48"><rect width="48" height="48" style="fill:none"/><path d="M30,34.37c6.42-2.8,11-9.94,11-18.33,0-5.9-7.61-10.69-17-10.69S7,10.14,7,16c0,8.39,4.58,15.53,11,18.33v5.28H10v3H38v-3H30Zm-6-25c1.89,0,4,2.86,4,6.69,0,9.25-2.71,14.59-4,15.53-1.29-.94-4-6.28-4-15.53C20,12.21,22.11,9.35,24,9.35ZM37,16c0,6.22-3,11.58-7.44,14.09A37.62,37.62,0,0,0,32,16a13.3,13.3,0,0,0-1.2-5.6C34.58,11.73,37,14,37,16ZM11,16c0-2.08,2.42-4.31,6.2-5.6A13.3,13.3,0,0,0,16,16a37.62,37.62,0,0,0,2.44,14.09C14.05,27.62,11,22.26,11,16ZM22,35.5a13.41,13.41,0,0,0,4,0v4.15H22Z"/></svg>