<svg xmlns="http://www.w3.org/2000/svg" viewBox="0 0 48 48"><rect width="48" height="48" style="fill:none"/><path d="M24,10a14,14,0,0,0,0,28,13.73,13.73,0,0,0,6.58-1.65l1.31-.69,1.45.32,3.39.75L36,33.34l-.32-1.45.69-1.31A13.73,13.73,0,0,0,38,24,14,14,0,0,0,24,10m0-4A18,18,0,0,1,39.88,32.47L42,42l-9.53-2.12A18,18,0,1,1,24,6Zm4.24,8.92h0a6.77,6.77,0,0,0-4.29,1.54,6.76,6.76,0,0,0-9.08,10l9.08,9.06L33,26.43a6.74,6.74,0,0,0-4.78-11.51Zm2,8.68-6.25,6.24-6.21-6.2a2.76,2.76,0,0,1,2-4.63,2.72,2.72,0,0,1,1.7.59l2.54,2,2.48-2.05a2.76,2.76,0,0,1,1.75-.63v0a2.74,2.74,0,0,1,2,4.68Z"/></svg>