<svg xmlns="http://www.w3.org/2000/svg" viewBox="0 0 48 48"><path d="M32,10a5.93,5.93,0,0,1,.84.06,6,6,0,0,1,2.32,11A6.84,6.84,0,0,0,32,27,11,11,0,0,1,21,38h-.52A11.08,11.08,0,0,1,10,27.52,11,11,0,0,1,21,16a6.83,6.83,0,0,0,5.88-3.16A6,6,0,0,1,32,10m0-4a10,10,0,0,0-8.5,4.73A2.87,2.87,0,0,1,21,12h0a15,15,0,0,0-.71,30L21,42A15,15,0,0,0,36,27v0a2.87,2.87,0,0,1,1.27-2.48,10,10,0,0,0-3.9-18.41A10.62,10.62,0,0,0,32,6ZM21,25a2,2,0,1,1-2,2,2,2,0,0,1,2-2m0-4a6,6,0,1,0,6,6,6,6,0,0,0-6-6Z"/><rect width="48" height="48" style="fill:none"/></svg>