<svg xmlns="http://www.w3.org/2000/svg" viewBox="0 0 48 48"><path d="M38.43,23.44A11,11,0,0,0,24.56,9.57,9,9,0,0,0,12.43,22.84c.23.23.47.44.71.64L11.35,33.82,7.48,37.69l2.83,2.83,3.87-3.87,10.34-1.79c.2.24.41.48.64.71A9,9,0,0,0,38.43,23.44ZM16.89,25.26a9,9,0,0,0,1.55.2c.15.26.33.51.5.77l-2.68,2.68Zm2.2,6.48,2.68-2.68c.26.17.51.35.77.5a9,9,0,0,0,.2,1.55Zm8.9,1a5,5,0,0,1-1.45-3.34l-.09-2.21-1.93-1.1a7,7,0,0,1-2.61-2.61l-1.1-1.93-2.21-.09A5,5,0,0,1,15.26,20,5,5,0,0,1,22,12.64l1.7,1.42,2.11-.69a7,7,0,0,1,8.83,8.83l-.69,2.11L35.36,26A5,5,0,0,1,28,32.74Z"/><rect width="48" height="48" style="fill:none"/></svg>