<svg xmlns="http://www.w3.org/2000/svg" viewBox="0 0 48 48"><rect width="48" height="48" style="fill:none"/><path d="M28.59,9.94l.45.64a11.27,11.27,0,0,0,2.6,2.9,11.51,11.51,0,0,0,3.58,1.59l.74.23c0,.26,0,.54,0,.77A11.58,11.58,0,0,0,36.37,20a11.12,11.12,0,0,0,1.94,3.33l.51.69-.51.69A11.12,11.12,0,0,0,36.37,28,11.58,11.58,0,0,0,36,31.93c0,.23,0,.51,0,.77l-.74.23a11.51,11.51,0,0,0-3.58,1.59,11.27,11.27,0,0,0-2.6,2.9l-.45.64-.69-.23A11.72,11.72,0,0,0,24,37a11.72,11.72,0,0,0-3.9.83l-.69.23L19,37.42a11.27,11.27,0,0,0-2.6-2.9,11.51,11.51,0,0,0-3.58-1.59L12,32.7c0-.26,0-.54,0-.77A11.58,11.58,0,0,0,11.63,28a11.12,11.12,0,0,0-1.94-3.33L9.18,24l.51-.69A11.12,11.12,0,0,0,11.63,20,11.58,11.58,0,0,0,12,16.07c0-.23,0-.51,0-.77l.74-.23a11.51,11.51,0,0,0,3.58-1.59,11.27,11.27,0,0,0,2.6-2.9l.45-.64.69.23A11.72,11.72,0,0,0,24,11a11.72,11.72,0,0,0,3.9-.83l.69-.23M18.93,5.81a2.39,2.39,0,0,0-.8.12c-1.82.58-2.61,3.22-4.12,4.32S9.74,11.3,8.63,12.83s-.21,4.1-.8,5.91S5,22.06,5,24s2.26,3.5,2.83,5.26-.3,4.4.8,5.91,3.85,1.47,5.38,2.58,2.3,3.73,4.12,4.32a2.39,2.39,0,0,0,.8.12C20.52,42.19,22.34,41,24,41s3.48,1.19,5.07,1.19a2.39,2.39,0,0,0,.8-.12c1.82-.58,2.61-3.22,4.12-4.32s4.27-1,5.38-2.58.21-4.1.8-5.91S43,25.94,43,24s-2.26-3.5-2.83-5.26.3-4.4-.8-5.91S35.52,11.36,34,10.25s-2.3-3.73-4.12-4.32a2.39,2.39,0,0,0-.8-.12C27.48,5.81,25.66,7,24,7s-3.48-1.19-5.07-1.19Zm-1.85,8.64a12,12,0,0,0,17,17L31.22,28.6A8,8,0,0,1,19.9,17.28,5,5,0,0,1,27,24.35a2,2,0,0,1-2.82-2.82L21.32,18.7a6,6,0,0,0,8.48,8.48A9,9,0,0,0,17.08,14.45Z"/></svg>