<svg xmlns="http://www.w3.org/2000/svg" viewBox="0 0 48 48"><rect width="48" height="48" style="fill:none"/><path d="M33.36,18.36a2,2,0,1,1-2-2A2,2,0,0,1,33.36,18.36Zm-17,12a2,2,0,1,0,2,2A2,2,0,0,0,16.36,30.36Zm8-6a2,2,0,1,0,2,2A2,2,0,0,0,24.36,24.36Zm16.43-6.58a52.05,52.05,0,0,1-5.09,8.1A2,2,0,0,1,33.16,29a50.37,50.37,0,0,1-6.36,6,2,2,0,0,1,.56,1.38,2,2,0,0,1-3.74,1,49.55,49.55,0,0,1-5.84,3.46,7.78,7.78,0,0,1-3.51.85A7.94,7.94,0,0,1,6.36,33.7v-.25a8,8,0,0,1,4.44-7.1c.62-.32,1.22-.68,1.81-1a2.08,2.08,0,0,1-.25-1,2,2,0,0,1,3.56-1.24A36.14,36.14,0,0,0,22.24,17a2,2,0,1,1,2.35-3.23c.63-1,1.22-2,1.76-3a8,8,0,0,1,7.1-4.44h.25A7.9,7.9,0,0,1,40.79,17.78Zm-3.73-5.54a3.88,3.88,0,0,0-3.36-1.88h-.25a4,4,0,0,0-3.55,2.27A40.44,40.44,0,0,1,12.63,29.9a4,4,0,0,0-2.27,3.55v.25a3.93,3.93,0,0,0,3.91,3.94A3.75,3.75,0,0,0,16,37.22,48.45,48.45,0,0,0,37.22,16,3.81,3.81,0,0,0,37.06,12.24Z"/></svg>