<svg xmlns="http://www.w3.org/2000/svg" viewBox="0 0 48 48"><rect width="48" height="48" style="fill:none"/><path d="M40.45,19.59V14.5L36.05,12,33.5,7.55H28.41L24,5,19.59,7.55H14.5L12,12,7.55,14.5v5.09L5,24l2.55,4.41V33.5L12,36.05l2.55,4.4h5.09L24,43l4.41-2.55H33.5l2.55-4.4,4.4-2.55V28.41L43,24Zm-6.4-4.17.86.5-5.25,5.25-2.83-2.83,5.25-5.25.5.86.54.93ZM21.59,11,24,9.62,26.41,11l.93.54H28l-4,4-4-4h.63Zm5.24,13L24,26.83,21.17,24,24,21.17ZM14.88,14.88l.54-.93.5-.86,5.25,5.25-2.83,2.83-5.25-5.25.86-.5ZM11,21.59l.54-.93V20l4,4-4,4v-.63L11,26.41,9.62,24Zm2.94,11-.86-.5,5.25-5.25,2.83,2.83-5.25,5.25-.5-.86-.54-.93ZM26.41,37,24,38.38,21.59,37l-.93-.54H20l4-4,4,4h-.63Zm6.71-3.87-.54.93-.5.86-5.25-5.25,2.83-2.83,5.25,5.25-.86.5ZM37,26.41l-.54.93V28l-4-4,4-4v.63l.54.93L38.38,24Z"/></svg>