<svg xmlns="http://www.w3.org/2000/svg" viewBox="0 0 48 48"><rect width="48" height="48" style="fill:none"/><path d="M30.23,24.9a4.52,4.52,0,0,1,.92,3,5.18,5.18,0,0,1-.91,3,5.79,5.79,0,0,1-2.52,2,8,8,0,0,1-1.72.53V36H22V33.34a7.19,7.19,0,0,1-2.38-1A7.77,7.77,0,0,1,16.78,29l3.5-1.64a3.83,3.83,0,0,0,1.48,1.89,4.1,4.1,0,0,0,2.3.64,4,4,0,0,0,2.16-.5A1.52,1.52,0,0,0,27,28.08a1.48,1.48,0,0,0-.3-.95,2.68,2.68,0,0,0-1-.7,17.32,17.32,0,0,0-2.14-.72,25.4,25.4,0,0,1-3.06-1.05A5.94,5.94,0,0,1,18.34,23a4.47,4.47,0,0,1-.93-3,5,5,0,0,1,.9-2.9,6.07,6.07,0,0,1,2.49-2,7.11,7.11,0,0,1,1.2-.42V12h4v2.59a7.08,7.08,0,0,1,5.22,4.2l-3.46,1.68a4.32,4.32,0,0,0-1.46-1.81,3.63,3.63,0,0,0-2.06-.56,3.53,3.53,0,0,0-1.93.5,1.47,1.47,0,0,0-.78,1.25,1.48,1.48,0,0,0,.32,1,2.8,2.8,0,0,0,1,.69,18.82,18.82,0,0,0,2.15.7,27.44,27.44,0,0,1,3,1A5.67,5.67,0,0,1,30.23,24.9ZM19,37.07a14,14,0,0,1,0-26.14V6.73a18,18,0,0,0,0,34.54ZM29,6.73v4.2a14,14,0,0,1,0,26.14v4.2A18,18,0,0,0,29,6.73Z"/></svg>