<svg xmlns="http://www.w3.org/2000/svg" viewBox="0 0 48 48"><path d="M24,6A18,18,0,1,0,42,24,18,18,0,0,0,24,6ZM38,24a14,14,0,0,1-.18,2.16L35.66,24l2.16-2.16A14,14,0,0,1,38,24ZM10,24a14,14,0,0,1,.18-2.16L12.34,24l-2.16,2.16A14,14,0,0,1,10,24Zm8,0-6.42-6.42a13,13,0,0,1,1.22-1.95L21.17,24,12.8,32.37a13,13,0,0,1-1.22-1.95ZM15.63,12.8a13,13,0,0,1,1.95-1.22L24,18l6.42-6.42a13,13,0,0,1,1.95,1.22L24,21.17Zm8.37,14,8.37,8.37a13,13,0,0,1-1.95,1.22L24,30l-6.42,6.42a13,13,0,0,1-1.95-1.22ZM26.83,24l8.37-8.37a13,13,0,0,1,1.22,1.95L30,24l6.42,6.42a13,13,0,0,1-1.22,1.95Zm-.67-13.82L24,12.34l-2.16-2.16a13.05,13.05,0,0,1,4.32,0ZM21.84,37.82,24,35.66l2.16,2.16a13,13,0,0,1-4.32,0Z"/><rect width="48" height="48" style="fill:none"/></svg>