<svg xmlns="http://www.w3.org/2000/svg" viewBox="0 0 48 48"><path d="M29,36.88,26.83,39,29,41.12,26.12,44,24,41.83,21.88,44l-2.83-2.83L21.17,39l-2.12-2.12,2.83-2.83L24,36.17l2.12-2.12ZM21.59,16.27,11.48,22.1l2,3.47,10.11-5.84Zm2.89,3.46,10.11,5.84,2-3.47L26.48,16.27Zm-2.89,2.54L11.48,28.1l2,3.47,10.11-5.84Zm2.89,3.46,10.11,5.84,2-3.47L26.48,22.27ZM21.59,4.27,11.48,10.1l2,3.47L23.59,7.73Zm2.89,3.46,10.11,5.84,2-3.47L26.48,4.27Zm-2.89,2.54L11.48,16.1l2,3.47,10.11-5.84Zm2.89,3.46,10.11,5.84,2-3.47L26.48,10.27ZM21.59,28.27,11.48,34.1l2,3.47,10.11-5.84Zm2.89,3.46,10.11,5.84,2-3.47L26.48,28.27Z"/><rect width="48" height="48" style="fill:none"/></svg>