<svg xmlns="http://www.w3.org/2000/svg" viewBox="0 0 48 48"><rect width="48" height="48" style="fill:none"/><path d="M43,17.94a2.58,2.58,0,0,0-2.63-2.55A2.67,2.67,0,0,0,38.7,16a24.1,24.1,0,0,1-4.57,2.77,11,11,0,0,0-20.26,0A23.71,23.71,0,0,1,9.31,16,2.65,2.65,0,0,0,5,18.07,19,19,0,0,0,22.43,36.94C23,37,23.48,37,24,37A19,19,0,0,0,43,18ZM24,16a7,7,0,0,1,6.37,4.13A23.89,23.89,0,0,1,24,21a23.89,23.89,0,0,1-6.37-.87A7,7,0,0,1,24,16Zm0,17c-.41,0-.83,0-1.25,0A15.16,15.16,0,0,1,9.27,20.81,27.66,27.66,0,0,0,24,25a27.72,27.72,0,0,0,14.74-4.19A15,15,0,0,1,24,33Z"/></svg>