<svg xmlns="http://www.w3.org/2000/svg" viewBox="0 0 48 48"><rect width="48" height="48" style="fill:none"/><path d="M19,26a2,2,0,1,1-2-2A2,2,0,0,1,19,26Zm12-2a2,2,0,1,0,2,2A2,2,0,0,0,31,24Zm15,2a6,6,0,0,1-6,6,5.29,5.29,0,0,1-1.13-.12,16,16,0,0,1-29.74,0A5.67,5.67,0,0,1,8,32,6,6,0,0,1,8,20a5.67,5.67,0,0,1,1.17.13,16,16,0,0,1,12.9-10,15.88,15.88,0,0,1,2-6.9l3.5,1.95a11.82,11.82,0,0,0-1.46,5,16,16,0,0,1,12.81,10A5.29,5.29,0,0,1,40,20,6,6,0,0,1,46,26ZM16,17.05c.32,0,.64-.05,1-.05a9,9,0,0,1,7,3.35A9,9,0,0,1,31,17c.33,0,.65,0,1,.05a11.94,11.94,0,0,0-15.94,0ZM8.13,28A15.9,15.9,0,0,1,8,26c0-.31,0-.62.05-.92s0-.71.08-1A1,1,0,0,0,8,24a2,2,0,0,0,0,4A1,1,0,0,0,8.13,28ZM36,26a5,5,0,0,0-10,0H22a5,5,0,0,0-10,0,12,12,0,0,0,24,0Zm6,0a2,2,0,0,0-2-2l-.14,0c0,.35.07.7.09,1.06s0,.61,0,.92a14.42,14.42,0,0,1-.14,2L40,28A2,2,0,0,0,42,26Z"/></svg>