<svg xmlns="http://www.w3.org/2000/svg" viewBox="0 0 48 48"><rect width="48" height="48" style="fill:none"/><path d="M39.14,19.12A10.52,10.52,0,0,0,38.93,18a6.49,6.49,0,1,0-9.43-8l-.69,0H19.19l-.69,0a6.49,6.49,0,1,0-9.43,8,10.52,10.52,0,0,0-.21,1.12l-1.12,9A12.36,12.36,0,0,0,20,42h8A12.36,12.36,0,0,0,40.26,28.11ZM35.5,10a2.49,2.49,0,0,1,1.72,4.3,10.38,10.38,0,0,0-3.78-3.21A2.49,2.49,0,0,1,35.5,10ZM10,12.5a2.5,2.5,0,0,1,4.56-1.41,10.38,10.38,0,0,0-3.78,3.21A2.48,2.48,0,0,1,10,12.5ZM34.27,35.17A8.24,8.24,0,0,1,28,38H26V35h3V31H19v4h3v3H20a8.35,8.35,0,0,1-8.29-9.4l.2-1.6H18V23H12.41l.25-2H18V17H13.79a6.43,6.43,0,0,1,5.4-3h9.62a6.43,6.43,0,0,1,5.4,3H30v4h5.34l.25,2H30v4h6.09l.2,1.6A8.21,8.21,0,0,1,34.27,35.17Z"/></svg>