<svg xmlns="http://www.w3.org/2000/svg" viewBox="0 0 48 48"><rect width="48" height="48" style="fill:none"/><path d="M42,19.12l-2.36-3.07C40.76,15.43,42,14.93,42,14c0-1.27-2.32-1.74-3.43-2.81-.86-.82-.91-3.19-2.29-3.83a1.36,1.36,0,0,0-.58-.11c-1,0-2.31.73-3.41.73a2.07,2.07,0,0,1-.5-.06c-1.24-.32-2.22-2.52-3.63-2.69H28C26.76,5.23,25.34,7,24,7s-2.76-1.77-4-1.77h-.14c-1.41.17-2.39,2.37-3.63,2.69a2.07,2.07,0,0,1-.5.06c-1.1,0-2.41-.73-3.4-.73a1.41,1.41,0,0,0-.59.11c-1.38.63-1.42,3-2.28,3.83C8.32,12.25,6,12.73,6,14c0,.93,1.24,1.43,2.34,2.05L6,19.12a4.85,4.85,0,0,0,.88,6.78l.27.2a4.83,4.83,0,0,0,5.87,0V31a11,11,0,0,0,22,0V26.11a4.83,4.83,0,0,0,5.87,0l.27-.2A4.85,4.85,0,0,0,42,19.12ZM13.72,11.7a8.1,8.1,0,0,0,2,.28,6,6,0,0,0,1.48-.18,6.79,6.79,0,0,0,3.15-2A6.91,6.91,0,0,0,24,11a6.91,6.91,0,0,0,3.66-1.18,6.74,6.74,0,0,0,3.15,2,6,6,0,0,0,1.48.18,8.1,8.1,0,0,0,2-.28A6.59,6.59,0,0,0,35.72,14a6.59,6.59,0,0,0-1.44,2.3,8.1,8.1,0,0,0-2-.28,6,6,0,0,0-1.48.18,6.79,6.79,0,0,0-3.15,2A6.91,6.91,0,0,0,24,17a6.91,6.91,0,0,0-3.66,1.18,6.74,6.74,0,0,0-3.15-2A6,6,0,0,0,15.71,16a8.1,8.1,0,0,0-2,.28A6.59,6.59,0,0,0,12.28,14,6.59,6.59,0,0,0,13.72,11.7ZM10.07,23.1a.78.78,0,0,1-.5-.17l-.27-.2A.84.84,0,0,1,9,22.17a.82.82,0,0,1,.16-.61l1.56-2a2.26,2.26,0,0,0,1,1.1,1.36,1.36,0,0,0,.58.11l-1.56,2A.83.83,0,0,1,10.07,23.1ZM31,31a7,7,0,0,1-5,6.71V33h3V29H19v4h3v4.71A7,7,0,0,1,17,31V21.2l.3-.39c.8.76,1.57,1.84,2.54,2H20c1.26,0,2.68-1.77,4-1.77s2.76,1.77,4,1.77h.14c1-.12,1.74-1.2,2.54-2l.3.39Zm8-8.83a.84.84,0,0,1-.31.56l-.27.2a.78.78,0,0,1-.5.17.83.83,0,0,1-.67-.32l-1.56-2a1.36,1.36,0,0,0,.58-.11,2.26,2.26,0,0,0,1-1.1l1.56,2A.82.82,0,0,1,39,22.17Z"/></svg>