<svg xmlns="http://www.w3.org/2000/svg" viewBox="0 0 48 48"><rect width="48" height="48" style="fill:none"/><path d="M28.48,17.55a2.5,2.5,0,1,1-2.5-2.5A2.49,2.49,0,0,1,28.48,17.55ZM37,39A36,36,0,0,0,25,27c-.31-.21-.37-.38-.37-.41s.05-.11.22-.18a3.11,3.11,0,0,1,2.58.46c3.56,1.9,6.66,2.45,9.21,1.64a7.54,7.54,0,0,0,4.49-4.05l.57-1.15-.8-1C38.16,18.88,30.47,10.89,28.78,9.15L27.19,4.37l-2,1c-.77.35-18.87,9-18.87,34.68v2h32.4ZM24.87,10.08l.4,1.2.32.32c.09.09,7.73,8,11.29,12.12a3.13,3.13,0,0,1-1.45,1c-1.46.46-3.57,0-6.1-1.36-3.86-2.06-6.91-.84-8.12,1.17a4.32,4.32,0,0,0,1.62,5.86l.12.07A30.21,30.21,0,0,1,31.42,38H10.33C11,21,20.63,12.85,24.87,10.08Z"/></svg>