<svg xmlns="http://www.w3.org/2000/svg" viewBox="0 0 48 48"><rect width="48" height="48" style="fill:none"/><path d="M22,22.5A2.5,2.5,0,1,1,19.5,20,2.5,2.5,0,0,1,22,22.5ZM28.5,20A2.5,2.5,0,1,0,31,22.5,2.5,2.5,0,0,0,28.5,20ZM41,42.13,29.68,38.32,24,44l-5.68-5.68L7,42.13,5.73,38.34l9.43-3.18-.66-.66a13.44,13.44,0,0,1-3.2-13.86A7.49,7.49,0,1,1,20.83,12a12.76,12.76,0,0,1,6.34,0,7.49,7.49,0,1,1,9.53,8.68A13.44,13.44,0,0,1,33.5,34.5l-.66.66,9.43,3.18ZM31,13.55a13.18,13.18,0,0,1,2.5,1.95h0A14.6,14.6,0,0,1,34.76,17,3.49,3.49,0,1,0,31,13.5ZM14.5,15.5A13.18,13.18,0,0,1,17,13.55V13.5A3.5,3.5,0,1,0,13.24,17,14.6,14.6,0,0,1,14.5,15.5ZM24,38.34l6.67-6.67a9.43,9.43,0,1,0-13.34,0Z"/></svg>