<svg xmlns="http://www.w3.org/2000/svg" viewBox="0 0 48 48"><rect width="48" height="48" style="fill:none"/><path d="M42.2,13.67,39.7,9.33a6,6,0,0,0-5.21-3,5.93,5.93,0,0,0-3,.81h0a5.77,5.77,0,0,0-1.61,1.37A10.17,10.17,0,0,0,26.72,8H21.28a10.17,10.17,0,0,0-3.17.51A5.77,5.77,0,0,0,16.5,7.14h0a5.93,5.93,0,0,0-3-.81,6,6,0,0,0-5.21,3L5.8,13.67A6,6,0,0,0,8,21.86H8a6,6,0,0,0,2.29.76L9.17,31.46A9.5,9.5,0,0,0,18.61,42H29.39a9.5,9.5,0,0,0,9.44-10.54l-1.12-8.84A6,6,0,0,0,40,21.86h0A6,6,0,0,0,42.2,13.67ZM24.73,32H23.27A2.92,2.92,0,0,1,21,31.2,3.56,3.56,0,0,1,24,30a3.57,3.57,0,0,1,3,1.2A2.92,2.92,0,0,1,24.73,32Zm14.2-14.82A2,2,0,0,1,38,18.4a2.06,2.06,0,0,1-.76.25l-4,.48.51,4,1.12,8.79A5.5,5.5,0,0,1,29.39,38H26V35.9c3.51-.55,5.81-3.32,4.73-6.07C29.84,27.56,27.1,26,24,26s-5.84,1.56-6.73,3.83h0c-1.08,2.75,1.22,5.52,4.73,6.07V38H18.61a5.5,5.5,0,0,1-5.47-6.08l1.12-8.79.51-4-4-.48A2.06,2.06,0,0,1,10,18.4a2,2,0,0,1-.73-2.73l2.5-4.34a2,2,0,0,1,1.74-1,1.94,1.94,0,0,1,1.52.73l1.73,2.08,2.58-.83A6.55,6.55,0,0,1,21.28,12h5.44a6.55,6.55,0,0,1,1.94.31l2.58.83L33,11.06a1.94,1.94,0,0,1,1.52-.73,2,2,0,0,1,1.74,1l2.5,4.34A2,2,0,0,1,38.93,17.18ZM22,18.5A2.5,2.5,0,1,1,19.5,16,2.5,2.5,0,0,1,22,18.5Zm9,0A2.5,2.5,0,1,1,28.5,16,2.5,2.5,0,0,1,31,18.5Z"/></svg>