<svg xmlns="http://www.w3.org/2000/svg" viewBox="0 0 48 48"><rect width="48" height="48" style="fill:none"/><path d="M40.07,31.57l-1.73-9.36A8.84,8.84,0,0,0,37,18.94V12a6,6,0,0,0-12,0v3H23V12a6,6,0,0,0-12,0v6.94a8.84,8.84,0,0,0-1.34,3.27L7.93,31.57A8.82,8.82,0,0,0,16.6,42H31.4A8.82,8.82,0,0,0,40.07,31.57ZM29,12a2,2,0,0,1,4,0v3.66A8.88,8.88,0,0,0,29.66,15H29ZM17,10a2,2,0,0,1,2,2v3h-.66a8.88,8.88,0,0,0-3.34.66V12A2,2,0,0,1,17,10ZM35.1,36.26A4.79,4.79,0,0,1,31.4,38H26V35h4V31H18v4h4v3H16.6a4.83,4.83,0,0,1-4.74-5.7l1.74-9.36A4.82,4.82,0,0,1,18.34,19H29.66a4.82,4.82,0,0,1,4.74,3.94l1.74,9.36A4.81,4.81,0,0,1,35.1,36.26Z"/></svg>