<svg xmlns="http://www.w3.org/2000/svg" viewBox="0 0 48 48"><rect width="48" height="48" style="fill:none"/><path d="M29,17a3,3,0,1,1-3-3A3,3,0,0,1,29,17Zm7.92-.92A10.9,10.9,0,0,1,37,17.37V42H10l2.69-16.13a4.81,4.81,0,0,1-.53.07,5,5,0,0,1-1.22-.08,5.5,5.5,0,0,1-2.62-9.59,5.51,5.51,0,0,1,4.52-8.21,5,5,0,0,1,1.22.08,5.45,5.45,0,0,1,3.08,1.68A11.36,11.36,0,0,1,35.65,12H41Zm-25-1.67a1.46,1.46,0,0,0,1,.62,1.22,1.22,0,0,0,.33,0,1.5,1.5,0,0,0,1.4-1.24,1.49,1.49,0,0,0-1.21-1.73l-.34,0a1.51,1.51,0,0,0-1.4,1.24A1.43,1.43,0,0,0,11.88,14.41Zm1.49,6.3A1.5,1.5,0,0,0,12.15,19a1.22,1.22,0,0,0-.33,0,1.5,1.5,0,0,0-1.4,1.24,1.49,1.49,0,0,0,1.21,1.73L12,22A1.51,1.51,0,0,0,13.37,20.71ZM33,17.37a7.37,7.37,0,0,0-14.64-1.21L14.72,38H33Z"/></svg>