<svg xmlns="http://www.w3.org/2000/svg" viewBox="0 0 48 48"><rect width="48" height="48" style="fill:none"/><path d="M40,13V35H8V13H40m4-4H4V39H44V9ZM16.75,28.52h5.39v3.4h-11V29.53L16,24.37a10.89,10.89,0,0,0,1.67-2.11,3.41,3.41,0,0,0,.41-1.58,1.5,1.5,0,0,0-.45-1.1,1.62,1.62,0,0,0-1.2-.45,2.1,2.1,0,0,0-1.44.59,3.2,3.2,0,0,0-.92,1.6L10.86,20A5.56,5.56,0,0,1,12.94,17a6.1,6.1,0,0,1,3.65-1.15,5.74,5.74,0,0,1,2.72.62,4.66,4.66,0,0,1,1.86,1.71,4.74,4.74,0,0,1,.66,2.5,5.83,5.83,0,0,1-.68,2.68,13.61,13.61,0,0,1-2.25,2.93Zm11.72-8a5.66,5.66,0,0,0-1,3.53,5.84,5.84,0,0,0,.93,3.55,3.1,3.1,0,0,0,2.63,1.24,3.57,3.57,0,0,0,1.4-.25,3.41,3.41,0,0,0,1.18-.83V26H30.33v-3.3h6.73v6.39a7.56,7.56,0,0,1-2.7,2.35,7.66,7.66,0,0,1-7.13-.25,6.64,6.64,0,0,1-2.55-2.86,9.81,9.81,0,0,1-.9-4.32,9.67,9.67,0,0,1,.92-4.32,6.79,6.79,0,0,1,2.59-2.86,7.41,7.41,0,0,1,3.88-1,6.45,6.45,0,0,1,6,3.56l-2.82,2A4,4,0,0,0,33,19.8a3.16,3.16,0,0,0-1.79-.59A3.2,3.2,0,0,0,28.47,20.47Z"/></svg>