<svg xmlns="http://www.w3.org/2000/svg" viewBox="0 0 48 48"><rect width="48" height="48" style="fill:none"/><path d="M40,13V35H8V13H40m4-4H4V39H44V9ZM16.18,28.65h5.4v3.4h-11V29.67l4.87-5.16a11.05,11.05,0,0,0,1.66-2.11,3.42,3.42,0,0,0,.41-1.59,1.48,1.48,0,0,0-.45-1.09,1.61,1.61,0,0,0-1.19-.45,2.1,2.1,0,0,0-1.45.59,3.2,3.2,0,0,0-.92,1.6L10.3,20.15a5.46,5.46,0,0,1,2.07-3A6.07,6.07,0,0,1,16,16a5.82,5.82,0,0,1,2.71.61,4.53,4.53,0,0,1,1.86,1.71,4.77,4.77,0,0,1,.66,2.51,5.64,5.64,0,0,1-.68,2.67,13.63,13.63,0,0,1-2.25,2.94Zm21.52,3.4H33.07L28.52,25.6l-1.24,1.29v5.16H23.65V16.22h3.63v6l5.14-6h5l-6.41,6.72Z"/></svg>