<svg xmlns="http://www.w3.org/2000/svg" viewBox="0 0 48 48"><rect width="48" height="48" style="fill:none"/><path d="M40,13V35H8V13H40m4-4H4V39H44V9ZM18,22.08a3.72,3.72,0,0,1,2.09.63,4.38,4.38,0,0,1,1.52,1.72,5.31,5.31,0,0,1,.55,2.44,5.24,5.24,0,0,1-.71,2.75,5.12,5.12,0,0,1-2,1.89,6,6,0,0,1-2.87.68,5.69,5.69,0,0,1-3.51-1.06,6.35,6.35,0,0,1-2.12-2.85l3.33-1.17a2.23,2.23,0,0,0,2.26,1.78A2,2,0,0,0,18,28.34a2,2,0,0,0,.55-1.47A2,2,0,0,0,18,25.41a2,2,0,0,0-1.49-.55,1.93,1.93,0,0,0-.65.11,3.6,3.6,0,0,0-.7.36l-2-2.54,3.44-3.31H11.73v-3.4h9.68v3L17.91,22ZM28.4,20.47a5.66,5.66,0,0,0-1,3.53,5.84,5.84,0,0,0,.93,3.55A3.1,3.1,0,0,0,31,28.79a3.66,3.66,0,0,0,1.41-.25,3.47,3.47,0,0,0,1.17-.83V26H30.26v-3.3H37v6.39a7.56,7.56,0,0,1-2.7,2.35,7.27,7.27,0,0,1-3.3.76,7.19,7.19,0,0,1-3.82-1,6.64,6.64,0,0,1-2.55-2.86,9.81,9.81,0,0,1-.9-4.32,9.54,9.54,0,0,1,.92-4.32,6.71,6.71,0,0,1,2.58-2.86,7.42,7.42,0,0,1,3.89-1,6.45,6.45,0,0,1,6,3.56l-2.82,2a4,4,0,0,0-1.36-1.58,3.15,3.15,0,0,0-1.78-.59A3.22,3.22,0,0,0,28.4,20.47Z"/></svg>