<svg xmlns="http://www.w3.org/2000/svg" viewBox="0 0 48 48"><rect width="48" height="48" style="fill:none"/><path d="M40,13V35H8V13H40m4-4H4V39H44V9ZM21,25.7h1.9v3.4H21v2.82H17.37V29.1H10.65V26.89L16,16.08h5Zm-3.64-5.24-2.5,5.24h2.5Zm11.31,0a5.72,5.72,0,0,0-1,3.53,5.84,5.84,0,0,0,.93,3.55,3.12,3.12,0,0,0,2.63,1.24,3.66,3.66,0,0,0,1.41-.25,3.47,3.47,0,0,0,1.17-.83V26h-3.3v-3.3h6.72v6.39a7.56,7.56,0,0,1-2.7,2.35,7.64,7.64,0,0,1-7.12-.25,6.64,6.64,0,0,1-2.55-2.86A9.81,9.81,0,0,1,24,24a9.67,9.67,0,0,1,.92-4.32,6.67,6.67,0,0,1,2.59-2.86,7.38,7.38,0,0,1,3.88-1,6.42,6.42,0,0,1,6,3.56l-2.81,2a4,4,0,0,0-1.36-1.58,3.18,3.18,0,0,0-1.79-.59A3.23,3.23,0,0,0,28.68,20.47Z"/></svg>