<svg xmlns="http://www.w3.org/2000/svg" viewBox="0 0 48 48"><rect width="48" height="48" style="fill:none"/><path d="M40,13V35H8V13H40m4-4H4V39H44V9ZM19.82,22.1a4.35,4.35,0,0,1,1.71,1.84,6.12,6.12,0,0,1,.59,2.78,5.92,5.92,0,0,1-.69,2.92,4.55,4.55,0,0,1-2,1.89,6.7,6.7,0,0,1-3.06.66,5.85,5.85,0,0,1-3.48-1.06,5,5,0,0,1-2-2.75l3.33-1.08a2.41,2.41,0,0,0,.84,1.16,2.23,2.23,0,0,0,1.33.43A2.17,2.17,0,0,0,18,28.33a2.31,2.31,0,0,0,0-3,2.17,2.17,0,0,0-1.57-.55,2.41,2.41,0,0,0-1.25.33,2.11,2.11,0,0,0-.86,1l-3.11-.62.68-9.33H21.4v3.29H15.28l-.23,2.56a4.75,4.75,0,0,1,2.13-.47A5.19,5.19,0,0,1,19.82,22.1Zm8.63-1.63a5.66,5.66,0,0,0-1,3.53,5.84,5.84,0,0,0,.93,3.55A3.1,3.1,0,0,0,31,28.79a3.57,3.57,0,0,0,1.4-.25,3.41,3.41,0,0,0,1.18-.83V26H30.31v-3.3H37v6.39a7.56,7.56,0,0,1-2.7,2.35,7.27,7.27,0,0,1-3.3.76,7.19,7.19,0,0,1-3.82-1,6.6,6.6,0,0,1-2.56-2.86A10,10,0,0,1,23.77,24a9.67,9.67,0,0,1,.91-4.32,6.79,6.79,0,0,1,2.59-2.86,7.41,7.41,0,0,1,3.88-1,6.45,6.45,0,0,1,6,3.56l-2.82,2a4,4,0,0,0-1.36-1.58,3.16,3.16,0,0,0-1.79-.59A3.2,3.2,0,0,0,28.45,20.47Z"/></svg>