<svg xmlns="http://www.w3.org/2000/svg" viewBox="0 0 48 48"><rect width="48" height="48" style="fill:none"/><path d="M40,13V35H8V13H40m4-4H4V39H44V9ZM13.52,31.49a5.26,5.26,0,0,1-2.08-2,5.41,5.41,0,0,1-.75-2.82,8.59,8.59,0,0,1,.45-2.79,18.67,18.67,0,0,1,1.5-3.14l2.76-4.69h4.32l-3.34,5.36.06.06a3.69,3.69,0,0,1,1.17-.2,4.71,4.71,0,0,1,4.13,2.48,5.63,5.63,0,0,1,.66,2.76,5.74,5.74,0,0,1-.75,3,5.16,5.16,0,0,1-2.1,2,6.52,6.52,0,0,1-3,.7A6.43,6.43,0,0,1,13.52,31.49Zm4.57-3.21a2.18,2.18,0,0,0,.59-1.58,2.11,2.11,0,0,0-.57-1.52,1.94,1.94,0,0,0-1.46-.59,2.24,2.24,0,0,0-1.61.59,2,2,0,0,0-.64,1.52A2.16,2.16,0,0,0,15,28.28a2.08,2.08,0,0,0,1.55.63A2,2,0,0,0,18.09,28.28Zm10.55-7.81a5.72,5.72,0,0,0-1,3.53,5.84,5.84,0,0,0,.92,3.55,3.12,3.12,0,0,0,2.63,1.24,3.59,3.59,0,0,0,1.41-.25,3.47,3.47,0,0,0,1.17-.83V26h-3.3v-3.3h6.72v6.39a7.61,7.61,0,0,1-2.69,2.35,7.66,7.66,0,0,1-7.13-.25,6.64,6.64,0,0,1-2.55-2.86A9.81,9.81,0,0,1,24,24a9.67,9.67,0,0,1,.92-4.32,6.73,6.73,0,0,1,2.59-2.86,7.38,7.38,0,0,1,3.88-1,6.42,6.42,0,0,1,6,3.56l-2.81,2a4,4,0,0,0-1.36-1.58,3.18,3.18,0,0,0-1.79-.59A3.23,3.23,0,0,0,28.64,20.47Z"/></svg>