<svg xmlns="http://www.w3.org/2000/svg" viewBox="0 0 48 48"><rect width="48" height="48" style="fill:none"/><path d="M40,13V35H8V13H40m4-4H4V39H44V9ZM13,31.35a5.22,5.22,0,0,1-2.09-2,5.41,5.41,0,0,1-.75-2.82,8.48,8.48,0,0,1,.45-2.78,17.72,17.72,0,0,1,1.51-3.14L14.83,16h4.32L15.81,21.3l.06.06A3.67,3.67,0,0,1,17,21.17a4.65,4.65,0,0,1,2.38.64,4.73,4.73,0,0,1,1.76,1.84,6.18,6.18,0,0,1-.1,5.71,5.14,5.14,0,0,1-2.09,2,6.46,6.46,0,0,1-3,.7A6.25,6.25,0,0,1,13,31.35Zm4.56-3.21a2.17,2.17,0,0,0,.6-1.58,2.09,2.09,0,0,0-.58-1.51,1.93,1.93,0,0,0-1.46-.6,2.25,2.25,0,0,0-1.61.6,2,2,0,0,0-.63,1.51,2.14,2.14,0,0,0,.61,1.58,2.09,2.09,0,0,0,1.56.63A2,2,0,0,0,17.52,28.14Zm20.36,3.64H33.25l-4.56-6.45-1.23,1.29v5.16H23.82V16h3.64v6l5.14-6h5l-6.41,6.72Z"/></svg>