<svg xmlns="http://www.w3.org/2000/svg" viewBox="0 0 48 48"><rect width="48" height="48" style="fill:none"/><path d="M40,13V35H8V13H40m4-4H4V39H44V9ZM16.07,31.92H12L17.68,19.6H11.32l0-3.52H22.09v2.29ZM28,20.47a5.66,5.66,0,0,0-1,3.53A5.84,5.84,0,0,0,28,27.55a3.1,3.1,0,0,0,2.63,1.24,3.57,3.57,0,0,0,1.4-.25,3.41,3.41,0,0,0,1.18-.83V26H29.89v-3.3h6.73v6.39a7.56,7.56,0,0,1-2.7,2.35,7.66,7.66,0,0,1-7.13-.25,6.64,6.64,0,0,1-2.55-2.86,9.81,9.81,0,0,1-.9-4.32,9.67,9.67,0,0,1,.92-4.32,6.79,6.79,0,0,1,2.59-2.86,7.41,7.41,0,0,1,3.88-1,6.45,6.45,0,0,1,6,3.56l-2.82,2a4,4,0,0,0-1.36-1.58,3.16,3.16,0,0,0-1.79-.59A3.2,3.2,0,0,0,28,20.47Z"/></svg>