<svg xmlns="http://www.w3.org/2000/svg" viewBox="0 0 48 48"><rect width="48" height="48" style="fill:none"/><path d="M40,13V35H8V13H40m4-4H4V39H44V9ZM13.4,31.6A5,5,0,0,1,11.3,30a4,4,0,0,1-.74-2.34,4,4,0,0,1,.83-2.54,4.94,4.94,0,0,1,2-1.55v-.06a4.15,4.15,0,0,1-1.63-1.37,3.75,3.75,0,0,1,0-4.29,4.5,4.5,0,0,1,1.91-1.48,6.94,6.94,0,0,1,2.81-.54,7,7,0,0,1,2.82.54,4.41,4.41,0,0,1,1.9,1.48A3.59,3.59,0,0,1,21.9,20a3.49,3.49,0,0,1-.69,2.19,4.45,4.45,0,0,1-1.68,1.35v.06A5.06,5.06,0,0,1,21.6,25.1a4,4,0,0,1,.85,2.54A3.89,3.89,0,0,1,21.7,30a4.86,4.86,0,0,1-2.09,1.62,7.74,7.74,0,0,1-3.11.59A7.72,7.72,0,0,1,13.4,31.6Zm4.71-3.2a1.91,1.91,0,0,0,0-2.74,2.37,2.37,0,0,0-1.61-.51,2.36,2.36,0,0,0-1.6.51,1.91,1.91,0,0,0,0,2.74,2.36,2.36,0,0,0,1.6.51A2.37,2.37,0,0,0,18.11,28.4Zm-.37-6.83a1.45,1.45,0,0,0,0-2.1,1.87,1.87,0,0,0-1.24-.38,1.86,1.86,0,0,0-1.23.38,1.45,1.45,0,0,0,0,2.1A1.86,1.86,0,0,0,16.5,22,1.87,1.87,0,0,0,17.74,21.57Zm11-1.1a5.72,5.72,0,0,0-1,3.53,5.84,5.84,0,0,0,.93,3.55,3.12,3.12,0,0,0,2.63,1.24,3.66,3.66,0,0,0,1.41-.25,3.47,3.47,0,0,0,1.17-.83V26h-3.3v-3.3h6.72v6.39a7.56,7.56,0,0,1-2.7,2.35,7.64,7.64,0,0,1-7.12-.25A6.64,6.64,0,0,1,25,28.32a9.81,9.81,0,0,1-.9-4.32A9.54,9.54,0,0,1,25,19.68a6.67,6.67,0,0,1,2.59-2.86,7.36,7.36,0,0,1,3.88-1,6.45,6.45,0,0,1,6,3.56l-2.82,2a3.93,3.93,0,0,0-1.35-1.58,3.32,3.32,0,0,0-4.5.67Z"/></svg>