<svg xmlns="http://www.w3.org/2000/svg" viewBox="0 0 48 48"><rect width="48" height="48" style="fill:none"/><path d="M40,13V35H8V13H40m4-4H4V39H44V9ZM12.83,31.6A4.86,4.86,0,0,1,10.74,30,3.89,3.89,0,0,1,10,27.64a4,4,0,0,1,.84-2.54,4.85,4.85,0,0,1,2-1.55v-.06a4.06,4.06,0,0,1-1.62-1.37A3.56,3.56,0,0,1,10.54,20a3.59,3.59,0,0,1,.68-2.12,4.47,4.47,0,0,1,1.9-1.48,7,7,0,0,1,2.82-.54,6.94,6.94,0,0,1,2.81.54,4.5,4.5,0,0,1,1.91,1.48A3.58,3.58,0,0,1,21.33,20a3.49,3.49,0,0,1-.69,2.19A4.42,4.42,0,0,1,19,23.49v.06A5.09,5.09,0,0,1,21,25.1,4.15,4.15,0,0,1,21.14,30a5,5,0,0,1-2.09,1.62,7.77,7.77,0,0,1-3.11.59A7.74,7.74,0,0,1,12.83,31.6Zm4.71-3.2a1.89,1.89,0,0,0,0-2.74,2.36,2.36,0,0,0-1.6-.51,2.39,2.39,0,0,0-1.61.51,1.91,1.91,0,0,0,0,2.74,2.39,2.39,0,0,0,1.61.51A2.36,2.36,0,0,0,17.54,28.4Zm-.37-6.83a1.45,1.45,0,0,0,0-2.1,1.86,1.86,0,0,0-1.23-.38,1.86,1.86,0,0,0-1.23.38,1.45,1.45,0,0,0,0,2.1,1.86,1.86,0,0,0,1.23.38A1.86,1.86,0,0,0,17.17,21.57ZM38,31.92H33.37l-4.55-6.45-1.23,1.29v5.16H24V16.08h3.64v6l5.14-6h5l-6.41,6.73Z"/></svg>