<svg xmlns="http://www.w3.org/2000/svg" viewBox="0 0 48 48"><rect width="48" height="48" style="fill:none"/><path d="M24,26.66c0,1,.42,1.47,1.38,2.39a6.63,6.63,0,0,1,0,10.56C24.42,40.53,24,41,24,42H20a6.83,6.83,0,0,1,2.62-5.28c1-.92,1.38-1.37,1.38-2.39s-.42-1.47-1.38-2.39a6.62,6.62,0,0,1,0-10.55C23.58,20.47,24,20,24,19h4a6.83,6.83,0,0,1-2.62,5.28C24.42,25.19,24,25.64,24,26.66ZM6,6V32h7.68c.91.88,1.32,1.34,1.32,2.33s-.42,1.47-1.38,2.39A6.83,6.83,0,0,0,11,42h4c0-1,.42-1.47,1.38-2.39a6.63,6.63,0,0,0,0-10.56c-1-.92-1.38-1.37-1.38-2.39s.42-1.47,1.38-2.38A6.83,6.83,0,0,0,19,19H15c0,1-.42,1.47-1.38,2.39A6.79,6.79,0,0,0,11,26.66,6.89,6.89,0,0,0,11.14,28H10V10H38V28H33.41A2.18,2.18,0,0,1,33,26.66c0-1,.42-1.47,1.38-2.38A6.83,6.83,0,0,0,37,19H33c0,1-.42,1.47-1.38,2.39a6.62,6.62,0,0,0,0,10.55c1,.92,1.38,1.37,1.38,2.39s-.42,1.47-1.38,2.39A6.83,6.83,0,0,0,29,42h4c0-1,.42-1.47,1.38-2.39A6.83,6.83,0,0,0,37,34.33,6.25,6.25,0,0,0,36.57,32H42V6Z"/></svg>