<svg xmlns="http://www.w3.org/2000/svg" viewBox="0 0 48 48"><path d="M17.46,17.46a2,2,0,1,1,0,2.82,2,2,0,0,1,0-2.82m-2.83-2.83h0a6,6,0,0,0,0,8.48h0a6,6,0,0,0,8.48,0h0a6,6,0,0,0,0-8.48h0a6,6,0,0,0-8.48,0ZM27.36,27.36a2,2,0,1,1,0,2.82,2,2,0,0,1,0-2.82m-2.83-2.83h0a6,6,0,0,0,0,8.48h0A6,6,0,0,0,33,33h0a6,6,0,0,0,0-8.48h0a6,6,0,0,0-8.48,0ZM10.6,10.17l-.43.43a11.69,11.69,0,0,0,0,16.54L20.5,37.47A11.7,11.7,0,0,0,34,39.66l.43.42a4,4,0,0,0,5.65-5.65L39.66,34a11.7,11.7,0,0,0-2.19-13.5L27.14,10.17A11.69,11.69,0,0,0,10.6,10.17Zm24,13.16a7.7,7.7,0,0,1,0,10.88l-.43.43a7.7,7.7,0,0,1-10.88,0L13,24.31a7.7,7.7,0,0,1,0-10.88l.43-.43a7.7,7.7,0,0,1,10.88,0Z"/><rect width="48" height="48" style="fill:none"/></svg>