<svg xmlns="http://www.w3.org/2000/svg" viewBox="0 0 48 48"><rect width="48" height="48" style="fill:none"/><path d="M39.17,42l-11-11L28,31a3,3,0,0,1-3-3,1,1,0,0,1,0-.16L20.16,23,20,23a3,3,0,0,1-3-3,1,1,0,0,1,0-.16L6,8.83,8.83,6,42,39.17ZM28,15a2,2,0,1,0-2-2A2,2,0,0,0,28,15Zm2.34,6.86a3,3,0,0,0-4.2-4.2ZM35,22a2,2,0,1,0-2-2A2,2,0,0,0,35,22Zm0-7a2,2,0,1,0-2-2A2,2,0,0,0,35,15ZM22,13a2,2,0,0,0-2-2,1.76,1.76,0,0,0-.46.06l2.4,2.4A1.76,1.76,0,0,0,22,13Zm6-4a1,1,0,1,0-1-1A1,1,0,0,0,28,9ZM40,21a1,1,0,1,0-1-1A1,1,0,0,0,40,21ZM20,9a1,1,0,1,0-1-1A1,1,0,0,0,20,9ZM34.54,26.06l2.4,2.4A1.76,1.76,0,0,0,37,28a2,2,0,0,0-2-2A1.76,1.76,0,0,0,34.54,26.06ZM40,29a1,1,0,1,0-1-1A1,1,0,0,0,40,29ZM28,39a1,1,0,1,0,1,1A1,1,0,0,0,28,39ZM23,28a3,3,0,1,0-3,3A3,3,0,0,0,23,28ZM20,39a1,1,0,1,0,1,1A1,1,0,0,0,20,39Zm0-6a2,2,0,1,0,2,2A2,2,0,0,0,20,33Zm8,0a2,2,0,1,0,2,2A2,2,0,0,0,28,33ZM8,19a1,1,0,1,0,1,1A1,1,0,0,0,8,19Zm5,14a2,2,0,1,0,2,2A2,2,0,0,0,13,33Zm2-13a2,2,0,1,0-2,2A2,2,0,0,0,15,20ZM8,27a1,1,0,1,0,1,1A1,1,0,0,0,8,27Zm5-1a2,2,0,1,0,2,2A2,2,0,0,0,13,26Z"/></svg>