<svg xmlns="http://www.w3.org/2000/svg" viewBox="0 0 48 48"><path d="M23,20a3,3,0,1,1-3-3A3,3,0,0,1,23,20Zm5-3a3,3,0,1,0,3,3A3,3,0,0,0,28,17Zm-8,8a3,3,0,1,0,3,3A3,3,0,0,0,20,25Zm8,0a3,3,0,1,0,3,3A3,3,0,0,0,28,25Zm7-7a2,2,0,1,0,2,2A2,2,0,0,0,35,18Zm0,8a2,2,0,1,0,2,2A2,2,0,0,0,35,26Zm5-7a1,1,0,1,0,1,1A1,1,0,0,0,40,19Zm0,8a1,1,0,1,0,1,1A1,1,0,0,0,40,27ZM13,18a2,2,0,1,0,2,2A2,2,0,0,0,13,18Zm7-7a2,2,0,1,0,2,2A2,2,0,0,0,20,11Zm-7,0a2,2,0,1,0,2,2A2,2,0,0,0,13,11Zm15,0a2,2,0,1,0,2,2A2,2,0,0,0,28,11Zm7,0a2,2,0,1,0,2,2A2,2,0,0,0,35,11ZM20,33a2,2,0,1,0,2,2A2,2,0,0,0,20,33Zm-7,0a2,2,0,1,0,2,2A2,2,0,0,0,13,33Zm15,0a2,2,0,1,0,2,2A2,2,0,0,0,28,33Zm7,0a2,2,0,1,0,2,2A2,2,0,0,0,35,33ZM13,26a2,2,0,1,0,2,2A2,2,0,0,0,13,26ZM8,19a1,1,0,1,0,1,1A1,1,0,0,0,8,19Zm0,8a1,1,0,1,0,1,1A1,1,0,0,0,8,27ZM20,7a1,1,0,1,0,1,1A1,1,0,0,0,20,7Zm8,0a1,1,0,1,0,1,1A1,1,0,0,0,28,7ZM20,39a1,1,0,1,0,1,1A1,1,0,0,0,20,39Zm8,0a1,1,0,1,0,1,1A1,1,0,0,0,28,39Z"/><rect width="48" height="48" style="fill:none"/></svg>