<svg xmlns="http://www.w3.org/2000/svg" viewBox="0 0 48 48"><rect width="48" height="48" style="fill:none"/><path d="M24,6A18,18,0,1,0,42,24,18,18,0,0,0,24,6ZM37.47,20.23,28,14.75l4-2.27A14.08,14.08,0,0,1,37.47,20.23ZM18,20.45,24,17,30,20.53v6.94l-6,3.45-6-3.44Zm9.44-10L18,15.84V11.37a13.66,13.66,0,0,1,9.44-.92ZM14,14.22v11l-3.95-2.26A14,14,0,0,1,14,14.22ZM10.54,27.81,20,33.23l-3.95,2.28A14.06,14.06,0,0,1,10.54,27.81Zm10,9.74L30,32.09v4.54A13.87,13.87,0,0,1,24,38,14.16,14.16,0,0,1,20.53,37.55ZM34,33.78V22.84l3.94,2.28A13.94,13.94,0,0,1,34,33.78Z"/></svg>