<svg xmlns="http://www.w3.org/2000/svg" viewBox="0 0 48 48"><rect width="48" height="48" style="fill:none"/><path d="M42.65,12.55l-8.2-8.2a1.11,1.11,0,0,0-1.9.79V8.41a7.75,7.75,0,0,1-2.27,5.48l-4.73,4.73-1.28-1.28a2,2,0,0,0-2.83,2.83l1.28,1.28-1.17,1.17-1.28-1.28a2,2,0,0,0-2.83,2.83l1.28,1.28-1.17,1.17-1.28-1.28a2,2,0,0,0-2.83,2.83l1.28,1.28L9,35.13a2,2,0,0,0-2.45,3.11l2.17,2.17A2,2,0,0,0,11.87,38l1.68-1.68a7,7,0,0,0,11.05,3l.65.65a2,2,0,0,0,2.83,0h0a2,2,0,0,0,0-2.83l-.63-.63,1.17-1.17.63.63a2,2,0,0,0,2.83,0h0a2,2,0,0,0,0-2.83l-.63-.63,1.17-1.17.63.63a2,2,0,0,0,2.83,0h0a2,2,0,0,0,0-2.83l-.65-.65A7,7,0,0,0,35,19.09h0a6.89,6.89,0,0,0-2.61-1.64l.73-.73a7.75,7.75,0,0,1,5.48-2.27h3.27A1.11,1.11,0,0,0,42.65,12.55ZM20.14,36.94a3,3,0,0,1-2.53-4.61l4.13,4.14A3,3,0,0,1,20.14,36.94Zm4.48-3.25-4.24-4.24,1.17-1.17,4.24,4.24Zm4-4-4.24-4.24,1.17-1.17,4.24,4.24Zm3.95-4.05L28.43,21.5a3,3,0,0,1,4.14,4.14Z"/></svg>