<svg xmlns="http://www.w3.org/2000/svg" viewBox="0 0 48 48"><rect width="48" height="48" style="fill:none"/><path d="M33,10a5,5,0,0,1,5,5V33a5,5,0,0,1-5,5H15a5,5,0,0,1-5-5V15a5,5,0,0,1,5-5H33m0-4H15a9,9,0,0,0-9,9V33a9,9,0,0,0,9,9H33a9,9,0,0,0,9-9V15a9,9,0,0,0-9-9ZM26.35,30.9H22.69l-1.16-3.41H16L14.82,30.9H11.18L17,15h3.53ZM18.71,19.56l-1.62,4.69h3.33l-1.59-4.69ZM36.56,26.3H29.19a2.25,2.25,0,0,0,2.41,2.13A2.17,2.17,0,0,0,32.88,28a3,3,0,0,0,.91-1.14l2.74,1.18a4.75,4.75,0,0,1-1.89,2.29,5.55,5.55,0,0,1-3.06.82,6.29,6.29,0,0,1-3.12-.74,5,5,0,0,1-2.06-2.11,6.77,6.77,0,0,1-.72-3.2,7.35,7.35,0,0,1,.71-3.32,5.22,5.22,0,0,1,2-2.18,5.83,5.83,0,0,1,3-.77,6,6,0,0,1,2.84.65,4.7,4.7,0,0,1,1.89,1.86,5.66,5.66,0,0,1,.67,2.82A7.73,7.73,0,0,1,36.56,26.3Zm-3.13-2.74a1.94,1.94,0,0,0-.54-1.43,2,2,0,0,0-1.47-.56c-1.13,0-1.85.67-2.17,2Z"/></svg>