<svg xmlns="http://www.w3.org/2000/svg" viewBox="0 0 48 48"><rect width="48" height="48" style="fill:none"/><path d="M34.6,24.44l8.15-12.92H38l-4.88,8.16-.76-2.45c-.73-2.63-2.94-5.71-6.22-6.47a10.92,10.92,0,0,0-2.52-.28c-3,0-6.86,1.14-10.78,4.56-5.1,4.44-8.07,11.37-6.37,16.09s5.94,6.09,10.43,6.09S26.26,35,30.81,29.9l.65-.94,2.24,5.28v0a.36.36,0,0,1,0,.09,5.34,5.34,0,0,0,7.85,2l1.17-.81a5.65,5.65,0,0,1-5.5-3.79v0Zm-6.78,2.81c-3.47,3.9-7.24,6-10.91,6-5.42,0-6.29-2.42-6.67-3.46-1-2.62.93-8,5.24-11.71,3.39-3,6.3-3.57,8.15-3.57a7.59,7.59,0,0,1,1.62.17c1.56.37,2.85,2.16,3.27,3.65l1.72,6.22Z"/></svg>