<svg xmlns="http://www.w3.org/2000/svg" viewBox="0 0 48 48"><rect width="48" height="48" style="fill:none"/><path d="M24,9a12.38,12.38,0,0,1,5.19,1A12.38,12.38,0,0,1,24,11a12.38,12.38,0,0,1-5.19-1A12.38,12.38,0,0,1,24,9m0-4c-5.52,0-10,2.24-10,5s4.48,5,10,5,10-2.24,10-5S29.52,5,24,5ZM20,26v4a2,2,0,0,1-2,2h0a2,2,0,0,1-2-2V26a2,2,0,0,1,2-2h0A2,2,0,0,1,20,26Zm10-2h0a2,2,0,0,0-2,2v4a2,2,0,0,0,2,2h0a2,2,0,0,0,2-2V26A2,2,0,0,0,30,24Zm5.58-4.91-2.07,1.38-1.28.85-1.51-.22A8.4,8.4,0,0,0,29.5,21h-11a8.4,8.4,0,0,0-1.22.1l-1.51.22-1.28-.85-2.07-1.38-.31,3.77-.09,1-.58.86A8.5,8.5,0,0,0,18.5,38h11a8.5,8.5,0,0,0,7.06-13.24L36,23.9l-.09-1-.31-3.77M39,12l.88,10.53A12.5,12.5,0,0,1,29.5,42h-11A12.5,12.5,0,0,1,8.12,22.53L9,12l7.71,5.14A13.23,13.23,0,0,1,18.5,17h11a13.23,13.23,0,0,1,1.79.14L39,12Z"/></svg>