<svg xmlns="http://www.w3.org/2000/svg" viewBox="0 0 48 48"><path d="M24,11.7a3.91,3.91,0,0,1,2.76,6.67L24,21.14l-2.76-2.77A3.91,3.91,0,0,1,24,11.7m9.69,16.78a3.91,3.91,0,0,1,1,7.68,4,4,0,0,1-1,.14,3.92,3.92,0,0,1-3.77-2.9l-1-3.78,3.77-1a4,4,0,0,1,1-.13m-19.38,0a4,4,0,0,1,1,.13l3.77,1-1,3.78a3.92,3.92,0,0,1-3.77,2.9,4,4,0,0,1-1-.14,3.91,3.91,0,0,1,1-7.68M24,7.7a7.91,7.91,0,0,0-5.59,13.5L24,26.79l5.59-5.59A7.91,7.91,0,0,0,24,7.7Zm9.69,16.78a7.6,7.6,0,0,0-2,.27l-7.64,2,2.05,7.64a7.9,7.9,0,0,0,7.63,5.87,7.61,7.61,0,0,0,2-.28,7.9,7.9,0,0,0-2-15.54Zm-19.38,0a7.9,7.9,0,0,0-2,15.54,7.61,7.61,0,0,0,2.05.28A7.9,7.9,0,0,0,22,34.43L24,26.79l-7.64-2a7.6,7.6,0,0,0-2-.27Z"/><rect width="48" height="48" style="fill:none"/></svg>