<svg xmlns="http://www.w3.org/2000/svg" viewBox="0 0 48 48"><rect width="48" height="48" style="fill:none"/><path d="M28.34,25.11a8.92,8.92,0,0,0-4-3.22l1.28-3.79a12.82,12.82,0,0,1,6,4.79ZM40.7,22.16a9.73,9.73,0,0,1-2.88-.43A15.45,15.45,0,0,1,38,24a15.86,15.86,0,0,1-2.14,8,8.56,8.56,0,0,0,2,.06l.36,4A11.18,11.18,0,0,1,37,36c-5.78,0-10.53-4-15.13-7.84-4-3.39-7.88-6.6-11.7-6.34A12.52,12.52,0,0,0,10,24,12,12,0,0,0,22,36l.4,0,.6-3,2.6,2.44h0l3.19,3a16,16,0,1,1,6.31-23.6h0c3.3,4.63,7.11,3.11,7.53,2.93l1.68,3.63A8.74,8.74,0,0,1,40.7,22.16ZM32,30.64A11.84,11.84,0,0,0,34,24a12,12,0,0,0-22.31-6.11c4.65.45,8.77,3.89,12.77,7.25A45.74,45.74,0,0,0,32,30.64Z"/></svg>