<svg xmlns="http://www.w3.org/2000/svg" viewBox="0 0 48 48"><rect width="48" height="48" style="fill:none"/><path d="M18,27.5a3,3,0,1,1,3-3A3,3,0,0,1,18,27.5Zm12,0a3,3,0,1,1,3-3A3,3,0,0,1,30,27.5Zm1.43-12.72,2.6.69c1.16,2,3.52,7.15,3.91,15.21L35,32.31,33.65,29l-3.52,1.1a20.67,20.67,0,0,1-12.26,0L14.35,29,13,32.31l-2.93-1.63c.39-8.08,2.76-13.17,3.91-15.21l2.6-.69L17,16H31l.47-1.22M29,10l-.78,2H19.78L19,10l-7.56,2S6,19,6,33l9,5,1.67-4.12a24.55,24.55,0,0,0,14.66,0L33,38l9-5c0-14-5.44-21-5.44-21L29,10Z"/></svg>