<svg xmlns="http://www.w3.org/2000/svg" viewBox="0 0 48 48"><path d="M41.49,21.11c-.07-.19-.14-.38-.23-.57a9.22,9.22,0,0,0-.67-1.23,8.86,8.86,0,0,0-.86-1.08,1.13,1.13,0,0,1-.1-.13,10.49,10.49,0,0,0-.86-.77,9.11,9.11,0,0,0-1-.66L21.6,7.33a8.36,8.36,0,0,0-4.22-1.15A8.48,8.48,0,0,0,8.9,14.66V33.34h0a8.48,8.48,0,0,0,8.48,8.48,8.36,8.36,0,0,0,4.22-1.15l16.17-9.34a8.31,8.31,0,0,0,3.64-4.19A8.58,8.58,0,0,0,41.49,21.11ZM12.9,14.66a4.5,4.5,0,0,1,4.48-4.48,4.45,4.45,0,0,1,2.22.61A15.42,15.42,0,0,1,24,14.55a19.6,19.6,0,0,0-11.06,7Zm4.48,23.16A4.49,4.49,0,0,1,15,37.13a4.38,4.38,0,0,1-2.12-3.79A15.25,15.25,0,0,1,26.11,18.23,15.43,15.43,0,0,1,27.22,24,15.08,15.08,0,0,1,19.6,37.2h0a3.82,3.82,0,0,1-.54.26A4.25,4.25,0,0,1,17.38,37.82Zm20.56-13a4.3,4.3,0,0,1-2.17,3.1l-6,3.45a19.59,19.59,0,0,0,.55-13.1,15.36,15.36,0,0,1,5.42,1.91,5.38,5.38,0,0,1,.68.47,4.34,4.34,0,0,1,1.2,1.61,4.55,4.55,0,0,1,.29,1,4.27,4.27,0,0,1,0,1.54Z"/><rect width="48" height="48" style="fill:none"/></svg>