<svg xmlns="http://www.w3.org/2000/svg" viewBox="0 0 48 48"><rect width="48" height="48" style="fill:none"/><path d="M33,10a5,5,0,0,1,5,5V33a5,5,0,0,1-5,5H15a5,5,0,0,1-5-5V15a5,5,0,0,1,5-5H33m0-4H15a9,9,0,0,0-9,9V33a9,9,0,0,0,9,9H33a9,9,0,0,0,9-9V15a9,9,0,0,0-9-9ZM28.45,32.52H24.52l-1.24-3.65H17.34L16.1,32.52H12.19l6.23-17H22.2ZM20.26,20.38l-1.73,5H22.1l-1.71-5Zm13.12-2.45a2.1,2.1,0,0,1-1.55.57,2,2,0,0,1-1.51-.57,2.11,2.11,0,0,1-.56-1.54,2.08,2.08,0,0,1,.56-1.52,2,2,0,0,1,1.51-.57,2.1,2.1,0,0,1,1.55.57A2,2,0,0,1,34,16.39,2,2,0,0,1,33.38,17.93Zm.27,2V32.52H30.08V19.91Z"/></svg>