<svg xmlns="http://www.w3.org/2000/svg" viewBox="0 0 48 48"><rect width="48" height="48" style="fill:none"/><path d="M17.89,17.29a18.68,18.68,0,0,0,5,2.8,30.33,30.33,0,0,0,10,1.79h.49A80.31,80.31,0,0,1,24.07,28a81.37,81.37,0,0,1-10,5,30.4,30.4,0,0,0,3.7-10,18.55,18.55,0,0,0,.07-5.71m-6-11.39A.92.92,0,0,0,11,7.16c1.88,4.89,3.68,11,2.9,15.09a24.4,24.4,0,0,1-7.36,13.8A1.7,1.7,0,0,0,7.68,39,1.67,1.67,0,0,0,8,39c5.12-.88,11-3.44,18.08-7.5S38.28,23.55,41.6,19.55a1.7,1.7,0,0,0-1.29-2.79,1.8,1.8,0,0,0-.5.08,24.55,24.55,0,0,1-7,1,26.44,26.44,0,0,1-8.68-1.57c-3.92-1.36-8.32-6-11.62-10.06a.9.9,0,0,0-.7-.35ZM35.59,28.17a95.24,95.24,0,0,1-8.33,5.35,92.43,92.43,0,0,1-8.8,4.54A26.12,26.12,0,0,1,30.15,41.8a1.87,1.87,0,0,0,1,.3A1.84,1.84,0,0,0,33,40.16a26.19,26.19,0,0,1,2.61-12Z"/></svg>