<svg xmlns="http://www.w3.org/2000/svg" viewBox="0 0 48 48"><rect width="48" height="48" style="fill:none"/><path d="M38.46,14.89c-4.11-4.16-8.67-4.4-12.86-.67A18.94,18.94,0,0,0,24,15.84a18.94,18.94,0,0,0-1.6-1.62c-4.19-3.73-8.75-3.49-12.86.67C6.94,17.52,4,24.27,5.47,31.07a6.56,6.56,0,0,0,5,5.2,7.06,7.06,0,0,0,7.1-2.85,70.12,70.12,0,0,0,3.9-6.3c.8-1.4,1.64-2.86,2.5-4.26.86,1.4,1.7,2.86,2.5,4.26a70.12,70.12,0,0,0,3.9,6.3,7.06,7.06,0,0,0,7.1,2.85,6.56,6.56,0,0,0,5-5.2C44,24.27,41.06,17.52,38.46,14.89ZM18,25.12A63.38,63.38,0,0,1,14.4,31a3.09,3.09,0,0,1-3.06,1.34,2.62,2.62,0,0,1-2-2.16,15.08,15.08,0,0,1,3-12.5c2.63-2.66,4.76-2.81,7.35-.5a19.26,19.26,0,0,1,1.87,2C20.35,21.08,19.15,23.17,18,25.12ZM38.62,30.2a2.62,2.62,0,0,1-2,2.16A3.09,3.09,0,0,1,33.6,31,63.38,63.38,0,0,1,30,25.12c-1.12-1.95-2.32-4-3.57-5.94a19.26,19.26,0,0,1,1.87-2c2.59-2.31,4.72-2.16,7.35.5A15.08,15.08,0,0,1,38.62,30.2Z"/></svg>