<svg xmlns="http://www.w3.org/2000/svg" viewBox="0 0 48 48"><rect width="48" height="48" style="fill:none"/><path d="M24,22.85l1,.57v1.16l-1,.57-1-.57V23.42l1-.57m0-4.62-5,2.88v5.78l5,2.88,5-2.88V21.11l-5-2.88Zm14.45,1.42a8,8,0,0,0-11-10.33A8,8,0,0,0,13,13.66,8,8,0,0,0,9.55,28.35a8,8,0,0,0,11,10.33A8,8,0,0,0,35,34.34a8,8,0,0,0,3.46-14.69Zm-.82,8.75A4,4,0,0,1,35,30.29V24.57l-4-2.3V34h0a4,4,0,0,1-6.95,2.67L29,33.81V29.19L18.84,35.06h0a4,4,0,0,1-5.79-4.69L18,33.24l4-2.31L11.84,25.06h0A4,4,0,0,1,13,17.71v5.72l4,2.3V14h0a4,4,0,0,1,7-2.67L19,14.19v4.62l10.16-5.87h0A4,4,0,0,1,35,17.62l-5-2.86-4,2.31,10.16,5.87h0A4,4,0,0,1,37.63,28.4Z"/></svg>