<svg xmlns="http://www.w3.org/2000/svg" viewBox="0 0 48 48"><rect width="48" height="48" style="fill:none"/><path d="M43,24.5A3.5,3.5,0,0,0,39.5,21h0a16,16,0,0,0-7.08-9.6,12.14,12.14,0,0,1,3.88-1.28A2,2,0,0,0,38,8.2V8.07a1.94,1.94,0,0,0-2.25-1.91A15.82,15.82,0,0,0,28,9.53a15.43,15.43,0,0,0-8,0,15.82,15.82,0,0,0-7.74-3.37A1.94,1.94,0,0,0,10,8.07V8.2a2,2,0,0,0,1.72,1.92A12.14,12.14,0,0,1,15.6,11.4,16,16,0,0,0,8.52,21h0a3.49,3.49,0,0,0-.21,7A16,16,0,0,0,15,38.23V42h4V40.19a15.84,15.84,0,0,0,10,0V42h4V38.23A16,16,0,0,0,39.71,28,3.49,3.49,0,0,0,43,24.5ZM24,37A12,12,0,1,1,36,25,12,12,0,0,1,24,37ZM21,20.5A2.5,2.5,0,1,1,18.5,18,2.5,2.5,0,0,1,21,20.5Zm11,0A2.5,2.5,0,1,1,29.5,18,2.5,2.5,0,0,1,32,20.5Z"/></svg>