<svg xmlns="http://www.w3.org/2000/svg" viewBox="0 0 48 48"><path d="M21,27a3,3,0,1,1-3-3A3,3,0,0,1,21,27Zm9-3a3,3,0,1,0,3,3A3,3,0,0,0,30,24Zm2.21-14A2.21,2.21,0,0,0,30,12.21v8.21l-4.32-.35C25.08,20,24.53,20,24,20s-1.08,0-1.68.07L18,20.42V12.21A2.21,2.21,0,0,0,15.79,10a2.21,2.21,0,0,0-2.19,2.4l.9,9.87-1.6,1.35A7.31,7.31,0,0,0,10,29c0,4.88,6.41,9,14,9s14-4.12,14-9a7.31,7.31,0,0,0-2.9-5.38l-1.6-1.35.9-9.87A2.21,2.21,0,0,0,32.21,10m0-4a6.2,6.2,0,0,1,6.17,6.77l-.7,7.79A11.12,11.12,0,0,1,42,29c0,7.18-8.06,13-18,13S6,36.18,6,29a11.12,11.12,0,0,1,4.32-8.44l-.7-7.79A6.2,6.2,0,1,1,22,12.21v3.87c.66,0,1.32-.08,2-.08s1.34,0,2,.08V12.21A6.21,6.21,0,0,1,32.21,6Z"/><rect width="48" height="48" style="fill:none"/></svg>