<svg xmlns="http://www.w3.org/2000/svg" viewBox="0 0 48 48"><rect width="48" height="48" style="fill:none"/><path d="M33,10a5,5,0,0,1,5,5V33a5,5,0,0,1-5,5H15a5,5,0,0,1-5-5V15a5,5,0,0,1,5-5H33m0-4H15a9,9,0,0,0-9,9V33a9,9,0,0,0,9,9H33a9,9,0,0,0,9-9V15a9,9,0,0,0-9-9ZM18.54,14.52a8.24,8.24,0,0,1,3.53.71,5.24,5.24,0,0,1,2.3,2,5.88,5.88,0,0,1,.8,3.09,5.9,5.9,0,0,1-.78,3.08,5.09,5.09,0,0,1-2.23,2,7.69,7.69,0,0,1-3.41.71H16.09v5.36h-3.7v-17ZM18,22.8a4.21,4.21,0,0,0,2.49-.65,2.1,2.1,0,0,0,.91-1.8,2.13,2.13,0,0,0-.91-1.81A4.14,4.14,0,0,0,18,17.88h-1.9V22.8Zm9.84,8.1a4.73,4.73,0,0,1-2-2.46l3-1.27a2.5,2.5,0,0,0,.93,1.26,2.42,2.42,0,0,0,1.45.45,2.05,2.05,0,0,0,1.14-.25.78.78,0,0,0,.38-.7.89.89,0,0,0-.47-.75,4.63,4.63,0,0,0-1.43-.51,9,9,0,0,1-3.51-1.48,3.13,3.13,0,0,1-1.26-2.6,3.63,3.63,0,0,1,.62-2.1,4,4,0,0,1,1.77-1.38,6.58,6.58,0,0,1,2.64-.49,5.85,5.85,0,0,1,3.25.91,5.07,5.07,0,0,1,2,2.45l-3,1.24a3.21,3.21,0,0,0-1-1.23,2.13,2.13,0,0,0-1.27-.46,1.82,1.82,0,0,0-1.07.27.83.83,0,0,0-.37.71.89.89,0,0,0,.5.76,7.22,7.22,0,0,0,1.81.59q4.36.95,4.37,3.93a3.44,3.44,0,0,1-.67,2.08,4.3,4.3,0,0,1-1.84,1.43,6.33,6.33,0,0,1-2.63.52A6.24,6.24,0,0,1,27.83,30.9Z"/></svg>