<svg xmlns="http://www.w3.org/2000/svg" viewBox="0 0 48 48"><rect width="48" height="48" style="fill:none"/><path d="M33,10a5,5,0,0,1,5,5V33a5,5,0,0,1-5,5H15a5,5,0,0,1-5-5V15a5,5,0,0,1,5-5H33m0-4H15a9,9,0,0,0-9,9V33a9,9,0,0,0,9,9H33a9,9,0,0,0,9-9V15a9,9,0,0,0-9-9ZM18.54,14.52a8.24,8.24,0,0,1,3.53.71,5.24,5.24,0,0,1,2.3,2,5.88,5.88,0,0,1,.8,3.09,5.9,5.9,0,0,1-.78,3.08,5.09,5.09,0,0,1-2.23,2,7.69,7.69,0,0,1-3.41.71H16.09v5.36h-3.7v-17ZM18,22.8a4.21,4.21,0,0,0,2.49-.65,2.1,2.1,0,0,0,.91-1.8,2.13,2.13,0,0,0-.91-1.81A4.14,4.14,0,0,0,18,17.88h-1.9V22.8Zm9.44,8.72-.19-12.61H31V21.2h.13a4.76,4.76,0,0,1,4.62-2.58h.13V22.1h-.19a6.16,6.16,0,0,0-3.58.82A2.85,2.85,0,0,0,31,25.38v6.14Z"/></svg>