<svg xmlns="http://www.w3.org/2000/svg" viewBox="0 0 48 48"><rect width="48" height="48" style="fill:none"/><path d="M35.34,18.42a12,12,0,0,0-22.68,0A10,10,0,0,0,4,28.32c0,.27,0,.55,0,.82.52,6.38,7.39,10.23,13.32,7.81L24,34.23,30.65,37c5.93,2.42,12.8-1.43,13.32-7.81,0-.27,0-.55,0-.82A10,10,0,0,0,35.34,18.42Zm-3.4,15.06L21,29.05V25.59l3-1.74,3,1.74v2.87l4,1.62v-6.8l-7-4-7,4v8.08l2.14.88-3,1.22c-4.1,1.66-8.7-1.66-8.06-6a1,1,0,0,1,0-.16,6.11,6.11,0,0,1,5.26-4.9l2.29-.31.75-2.16a8.14,8.14,0,0,1,5.67-5.34,8,8,0,0,1,9.5,5.17l.8,2.33,2.29.31a6.08,6.08,0,0,1,5.14,4.36,6,6,0,0,1,.2,2A5.81,5.81,0,0,1,31.94,33.48Z"/></svg>