<svg xmlns="http://www.w3.org/2000/svg" viewBox="0 0 48 48"><rect width="48" height="48" style="fill:none"/><path d="M24,21H12v5a6,6,0,0,0,12,0,6,6,0,0,0,12,0V21Zm-4,5a2,2,0,0,1-4,0V25h4Zm12,0a2,2,0,0,1-4,0V25h4ZM24,11.37a6.46,6.46,0,0,1,2.25,2.47L27.35,16h2.43A8.23,8.23,0,0,1,38,24.22v5.56A8.23,8.23,0,0,1,29.78,38H18.22A8.23,8.23,0,0,1,10,29.78V24.22A8.23,8.23,0,0,1,18.22,16H23l.7-3.12A14.88,14.88,0,0,0,24,11.37M19.64,6a12.86,12.86,0,0,1,.17,6H18.22A12.22,12.22,0,0,0,6,24.22v5.56A12.22,12.22,0,0,0,18.22,42H29.78A12.22,12.22,0,0,0,42,29.78V24.22A12.22,12.22,0,0,0,29.78,12h0c-3.1-6-10.14-6-10.14-6Z"/></svg>