<svg xmlns="http://www.w3.org/2000/svg" viewBox="0 0 48 48"><rect width="48" height="48" style="fill:none"/><path d="M16.31,20.18s0-.06,0-.09a7.52,7.52,0,0,1-.18-.85l0-.19A7.31,7.31,0,0,1,16,18a8,8,0,0,1,8-8,8.09,8.09,0,0,1,1,.07l.27,0c.25,0,.49.09.73.15l.24.06a7.94,7.94,0,0,1,1.77.76l.16.1c.25.15.48.31.71.48a.27.27,0,0,0,.08.07,8.18,8.18,0,0,1,1.4,1.42.56.56,0,0,1,0,.08,7.81,7.81,0,0,1,.55.82,13.81,13.81,0,0,1,4.71,1.16A12,12,0,0,0,12,18a12.12,12.12,0,0,0,.69,4A8.16,8.16,0,0,1,16.31,20.18Z"/><path d="M31.77,16.15A7.5,7.5,0,0,1,32,18a7.81,7.81,0,0,1-.31,2.18,8.52,8.52,0,0,1,1.15.35l.17.06.42.19.24.12.38.21.25.15.34.23.25.19.31.25.24.22.28.26c.08.09.16.19.25.28l.22.25c.15.18.29.37.42.56l.15.24c.08.12.16.25.23.38l.14.27c.06.13.13.25.18.38s.08.19.12.29a2.86,2.86,0,0,1,.15.41,2.46,2.46,0,0,1,.09.29c0,.14.08.29.12.44l.06.28c0,.17.06.34.08.5l0,.25A6.62,6.62,0,0,1,38,28a8,8,0,0,1-8,8l-.51,0a14,14,0,0,1-3.34,3.39,12,12,0,1,0,5.62-23.21Z"/><path d="M27.32,35.53A8,8,0,0,1,24,33.27h0a8,8,0,0,1-1.17,1.09l-.1.08c-.18.13-.37.25-.56.37l-.12.07a7.54,7.54,0,0,1-1.44.67l-.15,0-.6.17-.24,0-.57.09-.23,0c-.27,0-.54,0-.81,0a8,8,0,0,1-8-8A7.2,7.2,0,0,1,10.08,27a.88.88,0,0,1,0-.17,7.84,7.84,0,0,1,.22-1,.25.25,0,0,0,0-.07,8.21,8.21,0,0,1,.91-2h0A13.93,13.93,0,0,1,10,19,12,12,0,1,0,27.32,35.53Z"/></svg>