<svg xmlns="http://www.w3.org/2000/svg" viewBox="0 0 48 48"><path d="M8,42H8a2,2,0,0,1-2-2H6a2,2,0,0,1,2-2H8a2,2,0,0,1,2,2h0A2,2,0,0,1,8,42Zm12.67-2h0a2,2,0,0,0-2-2h0a2,2,0,0,0-2,2h0a2,2,0,0,0,2,2h0A2,2,0,0,0,20.67,40ZM42,40h0a2,2,0,0,0-2-2h0a2,2,0,0,0-2,2h0a2,2,0,0,0,2,2h0A2,2,0,0,0,42,40ZM31.33,40h0a2,2,0,0,0-2-2h0a2,2,0,0,0-2,2h0a2,2,0,0,0,2,2h0A2,2,0,0,0,31.33,40ZM40,6H8A2,2,0,0,0,6,8v4a2,2,0,0,0,4,0V10H38v2a2,2,0,0,0,4,0V8A2,2,0,0,0,40,6Zm2,13V33a2,2,0,0,1-2,2H8a2,2,0,0,1-2-2V19a2,2,0,0,1,2-2H40A2,2,0,0,1,42,19Zm-4,2H26v3H38ZM10,21v3H22V21Zm0,10H22V28H10Zm28,0V28H26v3Z"/><rect width="48" height="48" style="fill:none"/></svg>