<svg xmlns="http://www.w3.org/2000/svg" viewBox="0 0 48 48"><rect width="48" height="48" style="fill:none"/><path d="M34,24c0,9.94-4.48,18-10,18a7,7,0,0,1-5-2.43l2.82-2.82A3.28,3.28,0,0,0,24,38c2.39,0,6-5.58,6-14s-3.61-14-6-14-5.7,5.15-6,13l-4,2c0-.33,0-.66,0-1,0-9.94,4.48-18,10-18S34,14.06,34,24Zm-5.62-5.66a18.59,18.59,0,0,0-1.47-4.2C26,14.06,25,14,24,14s-2,.06-2.91.14a18.73,18.73,0,0,0-1.47,4.2,28.38,28.38,0,0,1,8.76,0Zm5.53-2.69a30.49,30.49,0,0,1,.9,4.8C36.84,21.59,38,22.92,38,24s-1.15,2.41-3.19,3.55a30,30,0,0,1-.9,4.78C38.78,30.54,42,27.49,42,24S38.78,17.44,33.91,15.65ZM18,37.74l6.36-6.36L18,25v4.32c-5-1.15-8-3.57-8-5.33,0-1.08,1.16-2.41,3.19-3.55a30.49,30.49,0,0,1,.9-4.8C9.22,17.44,6,20.51,6,24c0,4.35,5,8,12,9.42Z"/></svg>