<svg xmlns="http://www.w3.org/2000/svg" viewBox="0 0 48 48"><path d="M12.28,9.64a2,2,0,0,1,.19-3.19l0,0a2,2,0,0,1,2.38.17A13.87,13.87,0,0,0,24,10a13.87,13.87,0,0,0,9.11-3.4,2,2,0,0,1,2.38-.17l0,0a2,2,0,0,1,.19,3.19A17.89,17.89,0,0,1,24,14,17.89,17.89,0,0,1,12.28,9.64ZM14,24A17.89,17.89,0,0,0,9.64,12.28a2,2,0,0,0-3.19.19l0,0a2,2,0,0,0,.17,2.38A13.87,13.87,0,0,1,10,24a13.87,13.87,0,0,1-3.4,9.11,2,2,0,0,0-.17,2.38l0,0a2,2,0,0,0,3.19.19A17.89,17.89,0,0,0,14,24Zm24,0a13.87,13.87,0,0,1,3.4-9.11,2,2,0,0,0,.17-2.38l0,0a2,2,0,0,0-3.19-.19,17.93,17.93,0,0,0,0,23.44,2,2,0,0,0,3.19-.19l0,0a2,2,0,0,0-.17-2.38A13.87,13.87,0,0,1,38,24ZM24,34a17.89,17.89,0,0,0-11.72,4.36,2,2,0,0,0,.19,3.19l0,0a2,2,0,0,0,2.38-.17,13.9,13.9,0,0,1,18.22,0,2,2,0,0,0,2.38.17l0,0a2,2,0,0,0,.19-3.19A17.89,17.89,0,0,0,24,34Z"/><rect width="48" height="48" style="fill:none"/></svg>