<svg xmlns="http://www.w3.org/2000/svg" viewBox="0 0 48 48"><rect width="48" height="48" style="fill:none"/><path d="M24,6a18,18,0,0,0,0,36V38A14,14,0,0,1,10.16,26h1a13,13,0,0,0,25.66,0h5.05A16.52,16.52,0,0,0,42,24,18,18,0,0,0,24,6Zm4,14a9,9,0,0,1-7-3.36,9.06,9.06,0,0,1-4.93,3.12,9,9,0,0,1,15.55-.53A8.93,8.93,0,0,1,28,20ZM24,33a9,9,0,0,1-9-9v0a12.77,12.77,0,0,0,2.17-.36,2.66,2.66,0,0,0-.17.9,2.5,2.5,0,0,0,5,0,2.53,2.53,0,0,0-1.47-2.28c.15-.09.32-.18.47-.28a13,13,0,0,0,5.09,1.92,2.67,2.67,0,0,0-.09.64,2.5,2.5,0,0,0,5,0,2.54,2.54,0,0,0-.15-.83A13.4,13.4,0,0,0,32.94,23,8.26,8.26,0,0,1,33,24,9,9,0,0,1,24,33ZM36.83,22a13,13,0,0,0-25.66,0h-1a14,14,0,0,1,27.68,0Z"/></svg>