<svg xmlns="http://www.w3.org/2000/svg" viewBox="0 0 48 48"><rect width="48" height="48" style="fill:none"/><path d="M15.1,9.9A6.94,6.94,0,0,0,14,9,18,18,0,0,1,34,9a6.94,6.94,0,0,0-1.09.87,6.51,6.51,0,0,0-1.46,2.26,13.89,13.89,0,0,0-14.88,0A6.51,6.51,0,0,0,15.1,9.9ZM33.05,15a2,2,0,0,0-2.56.44,7,7,0,0,1-3.85,2.39,2,2,0,0,0,.82,3.91,11,11,0,0,0,6-3.67,2.06,2.06,0,0,0,.43-.86,4.22,4.22,0,0,0,.39.47A4.5,4.5,0,0,0,42,14.5,17.88,17.88,0,0,0,39.87,6a18.88,18.88,0,0,1-5.55,5.32A4.43,4.43,0,0,0,33.05,15Zm-2,7a3,3,0,1,0,3,3A3,3,0,0,0,31,22ZM13.68,17.68a4,4,0,0,0,.46-.56,2.09,2.09,0,0,0,.45.95,11,11,0,0,0,6,3.67,2,2,0,0,0,.82-3.91,7,7,0,0,1-3.85-2.39A2,2,0,0,0,15,15.05a4.48,4.48,0,0,0-1.27-3.73A18.88,18.88,0,0,1,8.13,6,17.88,17.88,0,0,0,6,14.5a4.5,4.5,0,0,0,7.68,3.18ZM14,25a3,3,0,1,0,3-3A3,3,0,0,0,14,25Zm27.45-5.35A6.39,6.39,0,0,1,37.67,21,14.24,14.24,0,0,1,38,24h0a14,14,0,0,1-28,0h0a14.24,14.24,0,0,1,.33-3,6.39,6.39,0,0,1-3.78-1.34A17.88,17.88,0,0,0,6,24H6a18,18,0,0,0,36,0h0A17.88,17.88,0,0,0,41.45,19.65Z"/></svg>