<svg xmlns="http://www.w3.org/2000/svg" viewBox="0 0 48 48"><rect width="48" height="48" style="fill:none"/><path d="M43,17a3,3,0,0,0-1.76-2.72A5.49,5.49,0,0,0,36.5,6a5.43,5.43,0,0,0-2.77.77,3,3,0,0,0-5.35-.21,17.41,17.41,0,0,0-8.76,0,3,3,0,0,0-5.34.2A5.49,5.49,0,0,0,6,11.5a5.43,5.43,0,0,0,.77,2.77,3,3,0,0,0-.21,5.35,18,18,0,1,0,34.88,0A3,3,0,0,0,43,17ZM24,38A14,14,0,1,1,38,24,14,14,0,0,1,24,38ZM20.5,17A2.5,2.5,0,1,1,18,19.5,2.5,2.5,0,0,1,20.5,17ZM24,24a2.5,2.5,0,1,1-2.5,2.5A2.5,2.5,0,0,1,24,24ZM13,19.5a5.5,5.5,0,0,1,9-4.22A4.56,4.56,0,0,0,20.5,15a4.5,4.5,0,0,0,0,9A4.56,4.56,0,0,0,22,23.72a5.5,5.5,0,0,1-9-4.22Zm12,0A2.5,2.5,0,1,1,27.5,22,2.5,2.5,0,0,1,25,19.5Zm10,0a5.5,5.5,0,0,1-9,4.22A4.56,4.56,0,0,0,27.5,24a4.5,4.5,0,0,0,0-9,4.56,4.56,0,0,0-1.53.28,5.5,5.5,0,0,1,9,4.22ZM34.4,30a12,12,0,0,1-20.8,0,2,2,0,0,1,1.13-2.86h0a2,2,0,0,1,2.34.86,8,8,0,0,0,13.86,0,2,2,0,0,1,2.34-.86h0A2,2,0,0,1,34.4,30Z"/></svg>