<svg xmlns="http://www.w3.org/2000/svg" viewBox="0 0 48 48"><rect width="48" height="48" style="fill:none"/><path d="M8,6,6,9.46l5.71,3.3A5.5,5.5,0,1,0,20,17.5v0l2-3.41Zm6.5,13A1.5,1.5,0,1,1,16,17.5,1.5,1.5,0,0,1,14.5,19Zm21.79-6.24L42,9.46,40,6,26,14.06l2,3.41v0a5.5,5.5,0,1,0,8.29-4.74ZM33.5,19A1.5,1.5,0,1,1,35,17.5,1.5,1.5,0,0,1,33.5,19ZM24,29.1a23.93,23.93,0,0,1,17.46,7.53,2,2,0,0,1-.25,2.94h0a2,2,0,0,1-2.71-.21,19.92,19.92,0,0,0-29,0,2,2,0,0,1-2.71.21h0a2,2,0,0,1-.25-2.94A23.93,23.93,0,0,1,24,29.1Z"/><rect width="48" height="48" style="fill:none"/></svg>