<svg xmlns="http://www.w3.org/2000/svg" viewBox="0 0 48 48"><rect width="48" height="48" style="fill:none"/><rect width="48" height="48" style="fill:none"/><path d="M13.68,33.11a19.85,19.85,0,0,0,20.58,0,2,2,0,0,1,2.5.33h0a2,2,0,0,1-.38,3.08,23.94,23.94,0,0,1-24.83,0,2,2,0,0,1-.39-3.06h0A2,2,0,0,1,13.68,33.11Zm.68-18A7.39,7.39,0,0,1,11,9c-4.08,4.08-3.07,8.16-2,10.35a1.54,1.54,0,0,0,2.39.5l3.07-2.56A1.41,1.41,0,0,0,14.36,15.06ZM33.6,17.29l3.07,2.56a1.55,1.55,0,0,0,2.39-.5c1.06-2.19,2.07-6.27-2-10.35a7.39,7.39,0,0,1-3.36,6.06A1.4,1.4,0,0,0,33.6,17.29ZM33.39,20s-.82,1.44-4.08,2.08c-2.81.55-3,4.41-.95,5.92C30.87,29.82,35.39,28,33.39,20ZM19.57,28c2.09-1.51,1.87-5.37-.94-5.92C15.36,21.44,14.55,20,14.55,20,12.55,28,17.07,29.82,19.57,28Z"/></svg>