<svg xmlns="http://www.w3.org/2000/svg" viewBox="0 0 48 48"><path d="M14,12c.71,0,2,1.52,2,4s-1.29,4-2,4-2-1.52-2-4,1.29-4,2-4m0-4c-3.31,0-6,3.58-6,8s2.69,8,6,8,6-3.58,6-8-2.69-8-6-8Zm20,4c.71,0,2,1.52,2,4s-1.29,4-2,4-2-1.52-2-4,1.29-4,2-4m0-4c-3.31,0-6,3.58-6,8s2.69,8,6,8,6-3.58,6-8-2.69-8-6-8ZM24,40a23.94,23.94,0,0,0,17.46-7.54,2,2,0,0,0-.25-2.94h0a2,2,0,0,0-2.71.22,19.92,19.92,0,0,1-29,0,2,2,0,0,0-2.71-.22h0a2,2,0,0,0-.25,2.94A23.94,23.94,0,0,0,24,40Z"/><rect width="48" height="48" style="fill:none"/></svg>