<svg xmlns="http://www.w3.org/2000/svg" viewBox="0 0 48 48"><rect width="48" height="48" style="fill:none"/><path d="M42,36a6.5,6.5,0,0,0-.1-1.09l2.89-1.68-2-3.46L39.9,31.44A6.19,6.19,0,0,0,38,30.35V27H34v3.35a6.19,6.19,0,0,0-1.9,1.09l-2.89-1.67-2,3.46,2.89,1.68a6,6,0,0,0,0,2.18l-2.89,1.68,2,3.46,2.89-1.67A6.19,6.19,0,0,0,34,41.65V45h4V41.65a6.19,6.19,0,0,0,1.9-1.09l2.89,1.67,2-3.46L41.9,37.09A6.5,6.5,0,0,0,42,36Zm-6,2a2,2,0,1,1,2-2A2,2,0,0,1,36,38Zm-9.21,4H6V35.78a6,6,0,0,1,2.51-4.89A26.86,26.86,0,0,1,24,26a27.4,27.4,0,0,1,6.14.7,11.13,11.13,0,0,0-3.46,3.47A23.8,23.8,0,0,0,24,30a22.81,22.81,0,0,0-13.19,4.16A2,2,0,0,0,10,35.78V38H25.19A11,11,0,0,0,26.79,42ZM24,24a9,9,0,1,0-9-9A9,9,0,0,0,24,24Zm0-14a5,5,0,1,1-5,5A5,5,0,0,1,24,10Z"/></svg>